<svg width="638px" height="466px" viewBox="0 0 638 466" version="1.1" xmlns="http://www.w3.org/2000/svg" xmlns:xlink="http://www.w3.org/1999/xlink">
    <g id="Page-1" stroke="none" stroke-width="1" fill="none" fill-rule="evenodd">
        <g id="safari-pinned-tab" transform="translate(0.000000, -1.000000)" fill="#000000" fill-rule="nonzero">
            <g id="Group" transform="translate(319.000000, 233.500000) scale(-1, 1) rotate(-180.000000) translate(-319.000000, -233.500000) translate(0.500000, 0.500000)">
                <path d="M533.9,464.1 C532.1,462.7 532,460.4 531.5,384.3 L531,306 L528.7,305.7 C527.2,305.5 524.9,306.6 522.2,308.7 C517.4,312.7 509.1,318.4 505.5,320.4 C486.5,330.7 471.5,335.8 451.6,338.5 C439.2,340.2 419,339.9 409,337.9 C407.9,337.6 405.4,337.2 403.5,336.9 C397.3,335.9 380.3,329.9 371.2,325.5 C352.6,316.7 332.9,301.2 318.8,284.4 C311.8,276 300.5,259.6 300.5,257.9 C300.5,257.2 300.2,256.5 299.8,256.3 C298,255.6 290,237.3 286,225.1 C281.8,212.5 279.3,201.5 277.8,189 C276.5,179.3 277,148.7 278.4,141 C279.2,137.2 279.9,133.3 280,132.5 C283.7,112.6 293,89.6 304.8,71.6 C311.4,61.6 312.9,59.5 320,51.6 C348.7,19.4 387.4,1.1 429.1,0.1 C439.4,-0.1 461.4,1.7 463.6,3.1 C463.9,3.3 465.7,3.7 467.6,4 C473.8,5.1 491.1,11.3 499.5,15.4 C507.4,19.3 513,22.8 523.7,30.5 C530.5,35.3 531.5,34.1 531.5,21.4 C531.5,13.9 531.9,11.3 533.1,10.1 C533.9,9.2 534.9,8.4 535.3,8.4 C535.7,8.3 557.8,8.1 584.4,8 C628.9,7.9 632.9,8 634.9,9.6 L637,11.3 L637,236.3 C637,456.1 637,461.3 635.1,463.4 C633.2,465.5 632.7,465.5 584.5,465.5 C544.1,465.5 535.6,465.3 533.9,464.1 Z M470.5,245 C505.5,235.9 529.5,202.8 528.6,165.1 C527.8,129 502,96.6 468,88.9 C466.4,88.5 460,88.1 453.8,87.9 C445,87.6 441.2,88 435.4,89.6 C406.9,97.5 385.4,121.1 379.1,151.5 C377.7,158.4 377.4,178 378.7,182.5 C379,183.3 379.5,185.8 380,187.9 C380.4,190.1 381.8,194.5 383.1,197.6 C393.6,223.3 414.5,241.3 439.5,246 C447.9,247.6 462.3,247.2 470.5,245 Z" id="Shape"></path>
                <path d="M3.6,328.3 C2.5,327.9 1.3,327 0.9,326.3 C0.4,325.6 -2.84217094e-14,252.9 -2.84217094e-14,164.8 C-2.84217094e-14,15.4 0.1,4.4 1.7,2.3 L3.4,0 L54.4,0 C102.1,0 105.5,0.1 107.2,1.8 C108.9,3.5 109,7.7 109.1,71.8 C109.2,133.8 109.6,150.6 111.1,159.1 C117.7,196.8 135.4,220.1 162,226 C172.2,228.3 185.7,227.7 194,224.5 C202.1,221.5 205,221 206.4,222.7 C207,223.4 217.4,237.3 229.5,253.5 C241.6,269.7 252.1,283.7 252.8,284.5 C253.5,285.3 255.1,287.6 256.5,289.5 C257.8,291.4 259.2,293.2 259.5,293.5 C261.3,295 269.5,307.5 269.5,308.8 C269.5,309.6 268.9,310.7 268.3,311.3 C264.9,314 222.9,325.5 207.5,327.9 C195.2,329.9 182.7,329 167.7,325 C151.9,321 132.9,311.2 121,301.1 C109.9,291.6 109.3,292.1 109.1,311 C108.9,325.4 108.8,325.9 106.5,327.4 C104.4,328.8 98.2,329 54.8,329 C27.6,329 4.6,328.7 3.6,328.3 Z" id="Shape" transform="translate(134.750000, 164.500000) rotate(180.000000) translate(-134.750000, -164.500000) "></path>
            </g>
        </g>
    </g>
</svg>
