<?xml version="1.0" encoding="utf-8"?>
<!-- Generator: Adobe Illustrator 26.0.1, SVG Export Plug-In . SVG Version: 6.00 Build 0)  -->
<svg version="1.1" id="_x31_" xmlns="http://www.w3.org/2000/svg" xmlns:xlink="http://www.w3.org/1999/xlink" x="0px" y="0px"
	 viewBox="0 0 842 842" style="enable-background:new 0 0 842 842;" xml:space="preserve">
<style type="text/css">
	.st0{fill:#FFFFFF;}
	.st1{fill:#CCCCCC;}
</style>
<path class="st0" d="M579.77,355.03c-0.12-10.47-0.65-20.97-2.06-31.35c-1.05-7.77-5.43-16.52-6.18-24.33
	c-1.05-10.96,1.67-19.48,2.16-30.35c0.56-12.41-6.3-24.42-8.43-36.57c-2.58-14.67-5.14-29.62-11.23-43.33
	c-7.38-16.62-17.11-32.2-28.38-46.47c-11.82-14.95-26.02-28.72-42.59-38.61c-17.83-10.63-37.68-15.33-58.2-17.27
	c-3.45-0.33-6.92-0.54-10.39-0.59c-10.71-0.15-21.45,0.93-31.96,3.26c-16.68,3.71-31.86,11.78-46.62,20.28
	c-36.51,21.03-72.8,59.4-78.47,103.24c-4.38,33.86-0.02,79.91,1.48,106.52c-2.45-1.43-4.87-2.98-7.08-4.73
	c-3.46-2.74-6.16-5.78-10.85-5.98c-4.05-0.17-8.83,1.26-11.55,4.4c-2.83,3.27-3.75,10.1-4.33,14.31
	c-1.22,8.88-0.66,18.25,2.18,26.78c3.28,9.86,9.54,19.38,14.36,28.57c5.13,9.77,10.22,19.6,15.71,29.18
	c0.41,0.71,0.88,1.39,1.42,2.01c4.04,4.6,10.79,3.92,15.01-0.11c0.73-0.7,0.54-2.15,1.87-1.58c0.78,0.34,1.21,1.46,1.51,2.19
	c0.7,1.73,0.89,3.58,1.41,5.36c1.23,4.18,2.57,8.34,4.06,12.44c0.95,2.59,1.93,5.17,2.95,7.74c2.99,7.54,6.31,14.95,9.98,22.18
	c1.83,3.61,3.76,7.17,5.77,10.68c1.01,1.75,2.04,3.49,3.09,5.22c0.32,0.52,1.7,4.12,2.38,4.11c-1.79,0.01-3.13-0.06-4.53,1.11
	c-1.42,1.19-2.93,2.3-4.2,3.67c-2.61,2.83-4.34,6.42-5.16,10.17c-4.24,19.39-26.05,60.58-23.62,75.11
	c2.42,14.54,37.56,92.07,37.56,92.07c1.26,4.03,2.93,7.97,2.83,12.23c-0.1,4.22,0.9,8.07,2.07,12.13
	c2.54,8.86,6.08,17.61,9.43,26.04c0.12,0.3,0.28,0.63,0.59,0.69c1.81,0.35,1.7-5.76,1.83-6.56c0.66-4.08,2.89-7.61,3.64-11.54
	c0.99-5.2,4.31-10.25,6.87-14.81c0,0-6.66-36.34-4.85-46.04c1.33-7.1,8.96-11.19,14.7-14.48c7.49-4.3,16.76,2.85,22.08,8.4
	c5.65,5.9,10.2,12.94,16.7,17.9l-2.87-6.16c7.51,13.6,16.51,29.02,23.3,37.35c13.33,16.35,28.47,65.42,28.47,65.42
	s12.11-33.92,10.3-46.04c-1.82-12.11-0.61-46.04-0.61-46.04c7.43-11.34,14.89-22.67,22.37-33.98l-21.99,34.09
	c3.25-4.93,7.42-9.26,12.21-12.72c3.37-2.43,7.26-4.3,10.79-6.5c3.18-1.99,3.69-1.72,5.5,2c1.29,2.66,1.98,5.56,2.47,8.46
	c0.72,4.22,3.11,7.8,3.79,12.08c1.62,10.18,2.43,20.21,7.87,29.28c5.45,9.09,11.51,20.59,11.51,23.02
	c0,2.42,57.37-135.83,57.97-147.94c0.61-12.11-15.36-57.62-15.36-57.62l-5.77,8.94c2.2-5.06,4.34-10.17,6.37-15.15
	c10.49-25.86,18.47-52.6,27.43-79.01c3.51-10.33,8.05-20.37,10.41-31.05C579.18,376.38,579.88,365.48,579.77,355.03z M494.64,570.92
	c0.99-2.13,1.91-4.29,2.74-6.51l-0.23-0.1c0.8-0.25,1.56-0.51,2.25-0.77L494.64,570.92z"/>
<g>
	<g>
		<path class="st1" d="M539.45,452.06c3.21-7.57,2.68-14.46,2.4-22.4c-0.11-2.96-0.01-4.42-2.36-6.69c-2.5-2.42-5.86-3.86-9.05-5.13
			c-8.16-3.25-16.41-6.27-24.67-9.25c-2.95-1.06-6.45-3.23-9.57-3.57c-3.33-0.36-7.4,1.56-10.43,2.76
			c-3.07,1.21-6.55,3.91-9.92,3.98c-2.87,0.07-5.87-1.87-8.5-2.82c-3.57-1.28-7.26-2.48-11.06-2.8c-5.46-0.47-12.59,2.87-17.95,4.32
			c-12.7,3.46-25.4,6.92-38.11,10.38c-6.15,1.67-15.05,3.05-19.93,7.46c-2.4,2.18-3.89,6.85-4.99,9.82
			c-1.31,3.54-2.23,7.21-2.75,10.95c-0.52,3.73-0.64,7.52-0.34,11.28c0.16,1.95,0.42,3.9,0.81,5.82c0.15,0.76,1.53,4.29,1.22,4.82
			c1.95-3.32,4.09-6.53,6.41-9.6c1.67-2.21,3.9-6.13,6.52-7.28c2.34-1.03,5.69-0.14,8.22-0.65c3.47-0.7,6.74-2.13,10.11-3.17
			c8.39-2.6,16.85-4.94,25.38-7.02c6.94-1.69,14.02-3.56,21.1-4.59c7.1-1.04,15.91,0.68,22.97,1.56
			c10.07,1.26,19.31-5.45,29.06-3.68c4.67,0.85,9.09,2.04,13.86,2.5c4.82,0.47,9.44,0.4,13.28,3.79c1.8,1.59,3.38,3.44,4.66,5.47
			c0.54,0.85,3.17,4.77,2.68,5.75C538.85,453.42,539.16,452.74,539.45,452.06z"/>
	</g>
</g>
<g>
	<g>
		<path class="st1" d="M433.91,489.93c1.76,0.04,6.49,4.74,8.23,5.77c3.05,1.8,6.24,3.36,9.52,4.67c6.69,2.66,14.19,4.08,21.31,4.99
			c5.6,0.72,11.43,0.63,16.7-1.39c6.26-2.4,12.87-8.06,15.19-14.51c0.03-0.08-8.5,0.69-8.98,0.73c-3.69,0.31-7.39-0.02-11.06-0.44
			c-4.99-0.57-9.97-1.45-15-1.42c-4.79,0.03-9.56,0.95-14.35,1.23C448.28,489.97,441.11,489.93,433.91,489.93z"/>
	</g>
</g>
<g>
	<g>
		<path class="st1" d="M539.05,496.81c-11.23,27.59-25.82,59.09-36.63,65.35c-12.87,7.45-71.8,11.27-85.35,5.85
			c-22-8.8-46.05-22.3-65.7-37.41c0.1-0.15,0.19-0.29,0.29-0.44c4.74-6.99,14.8-9.92,17.59-18.36c2.51-7.62,0.06-14.1,4.36-21.92
			c5.68,8.04,8.94,18.42,12.88,27.42c3.79,8.67,15.44,14.73,22.81,20.28c2.81,2.11,8.12,2.94,11.39,4.12
			c4.92,1.78,8.83,3.27,13.93,1.6c12.42-4.06,24.82-8.7,37.93-10.05c4.93-0.51,9.39-2.11,14.24-0.2c3.87,1.53,6.88,4.72,10.76,6.17
			c4.37,1.63,18.57-9.02,24.59-15.3c6.01-6.29,13.11-32.79,15.57-40.44C539.23,478.72,539.17,488.68,539.05,496.81z"/>
	</g>
</g>
<g>
	<path d="M402.94,282.72c-2.29-1.97-5.41-4.84-9.18-8.01c-3.77-3.15-8.25-6.61-13.48-9.15c-2.62-1.24-5.42-2.22-8.29-2.81
		c-2.93-0.49-5.65-0.65-8.31-0.69c-3.5-0.03-6.14,0.14-8.82,0.47c-2.67,0.36-5.41,0.85-9.04,1.91c-1.81,0.52-3.86,1.25-6.14,2.18
		c-2.29,0.94-4.98,2.04-7.84,3.88c-1.43,0.92-2.88,2.03-4.28,3.39c-1.38,1.34-2.81,2.78-4.35,4.35c-3.07,3.13-6.49,6.74-10.3,10.96
		c0,0,1.75-1.66,4.58-4.35c2.86-2.66,6.9-6.37,11.49-10.27c2.31-1.86,5.04-3.36,8.01-4.5c1.48-0.58,3.02-1.1,4.57-1.61
		c1.54-0.49,3.07-0.95,4.62-1.31c6.19-1.5,12.37-1.87,17.45-1.81c1.37,0.02,3.15,0.04,5.23,0.16c1.99,0.18,4.28,0.43,6.65,1.17
		c2.38,0.67,4.87,1.68,7.3,2.95c2.44,1.24,4.83,2.7,7.09,4.23c4.53,3.03,8.59,6.22,11.65,8.43c3.05,2.24,5.05,3.55,5.05,3.55
		s-0.35-0.29-0.98-0.82C405,284.49,404.08,283.71,402.94,282.72z"/>
	<path d="M402.96,291.81c-0.2-0.18-0.41-0.36-0.61-0.53c-1.49-1.27-3.08-2.4-4.72-3.48c-1.6-1.05-3.6-1.91-4.99-3.23
		c-2.83-2.66-6.18-4.61-9.38-6.86c-2.55-1.79-4.65-2.79-7.78-3.4c-5.72-1.13-11.59-1.3-17.39-0.88c-1.51,0.11-3.04,0.23-4.57,0.4
		c-1.25,0.12-2.59,0.23-3.83,0.49c-6.07,0.96-11.93,2.84-16.54,7.18c-3.13,2.95-6.33,5.8-9.01,9.22c-0.55,0.7-1.11,1.33-1.77,1.92
		c-0.36,0.31-1.55,2.13-1.83,2.19c1.87-0.41,3.91-0.67,5.8-0.67c1.54-0.31,3.07-0.21,4.64-0.3c3.5-0.2,6.93,0.5,10.42,0.83
		c-3.25-1.24-6.25-2.76-9.4-4.28c-0.01,0,4.48-4.78,4.92-5.2c2.51-2.39,5.45-4.04,8.6-5.2c-0.4,1.35-0.62,2.75-0.62,4.19
		c0,4.36,1.95,8.6,5.34,11.57c2.54,2.24,5.42,2.43,8.76,2.51c2.83,0.07,5.64-0.13,8.43-0.54c2-0.29,4.49-0.4,6.02-1.82
		c2.61-2.42,4.25-6,4.79-9.38c0.12-0.78,0.18-1.56,0.18-2.35c0-1.61-0.26-3.22-0.78-4.76c0.86,0.33,1.72,0.68,2.54,1.1
		c0.77,0.39,1.52,0.83,2.24,1.3c2.27,1.47,4.35,3.17,6.32,4.96c0.95,0.86,2.11,1.75,2.9,2.75c0.6,0.76,0.3,0.76-0.5,1.18
		c-1.39,0.72-2.82,1.38-4.25,2.03c-0.99,0.45-1.9,1.21-3.02,1.35c3.05-0.18,5.87-0.42,8.94-0.3c2.87,0.11,5.75,0.22,8.62,0.34
		c0.73,0.03,2.6,0.49,2.82-0.39C404.41,293.08,403.4,292.2,402.96,291.81z"/>
	<path d="M513.43,389.11c-0.48,1.65-1.34,3.38-2.54,4.8c-1.18,1.43-2.61,2.49-3.75,3.13c-0.57,0.31-1.06,0.54-1.4,0.69
		c-0.35,0.14-0.54,0.22-0.54,0.22s0.16-0.03,0.44-0.09c0.29-0.05,0.7-0.15,1.21-0.31c1.02-0.31,2.45-0.91,3.89-1.97
		c1.44-1.04,2.89-2.56,3.89-4.42c0.99-1.82,1.63-3.89,1.83-5.82c0.08-0.64,0.11-1.2,0.09-1.72c-0.01-0.52,0-1.01-0.08-1.49
		c-0.11-0.97-0.3-1.96-0.7-3.25c-0.39-1.29-1.03-2.88-2.17-4.94c-1.15-2.05-2.85-4.56-5.53-7.5c0,0,0.12,0.18,0.33,0.49
		c0.21,0.32,0.53,0.77,0.88,1.36c0.74,1.15,1.68,2.8,2.56,4.7c0.87,1.9,1.64,4.08,2.06,6.22c0.43,2.14,0.47,4.21,0.29,5.89
		C514.13,386.02,513.91,387.47,513.43,389.11z"/>
	<path d="M495.61,392.65c2.13-0.37,4.11-1.17,6.31-1c1.26,0.1,2.51,0.29,3.77,0.4c0.13,0.01,0.27,0.02,0.39-0.03
		c0.25-0.12,0.3-0.46,0.27-0.74c-0.32-3.55-4.04-3.89-6.72-3.13c-0.37,0.11-0.71,0.24-1.01,0.38c-0.27,0.14-0.53,0.27-0.78,0.42
		c-0.5,0.3-1,0.63-1.63,1.14c-0.62,0.51-1.39,1.2-2.33,2.26c-0.95,1.05-2.04,2.5-3.5,4.41
		C491.54,395.23,493.65,392.99,495.61,392.65z"/>
	<path d="M435.82,396.01c0.74,0.01,1.51,0.03,2.3,0.03c4.82,0,9.33-1.92,14.03-2.7c1.71-0.28,3.56-0.92,5.28-0.53
		c2.62,0.6,5.21,1.67,7.77,2.49c-1.09-0.35-2.6-2.43-3.52-3.2c-0.89-0.74-1.78-1.46-2.86-1.91c-2.62-1.08-5.3-1.55-8.11-1.62
		c-5.74-0.15-11.09,2.22-15.64,5.57c-0.37,0.27-0.78,0.65-0.71,1.11C434.46,395.83,435.22,395.99,435.82,396.01z"/>
	<path d="M417.14,393.8c0.52,0.95,1.68,2.29,3.27,3.35c1.57,1.08,3.53,1.91,5.41,2.41c1.88,0.51,3.68,0.73,4.99,0.77
		c0.66,0.01,1.19,0.02,1.56-0.01c0.37-0.02,0.58-0.03,0.58-0.03s-0.16-0.02-0.44-0.06c-0.28-0.03-0.69-0.09-1.2-0.2
		c-1.02-0.2-2.43-0.55-3.97-1.15c-3.07-1.14-6.74-3.43-8.24-6.22c-0.52-0.91-0.82-1.71-1.13-2.5c-0.28-0.81-0.59-1.64-0.87-2.83
		c-0.29-1.19-0.59-2.74-0.72-4.98c-0.11-2.23-0.09-5.18,0.8-9c0,0-0.07,0.2-0.21,0.55c-0.14,0.35-0.32,0.87-0.52,1.52
		c-0.4,1.3-0.87,3.15-1.14,5.27c-0.26,2.12-0.37,4.52-0.07,6.84C415.51,389.85,416.14,392.09,417.14,393.8z"/>
	<path d="M485.76,401.64c1.24-0.82,2.64-2.08,4.49-3.76c0,0-0.45,0.31-1.15,0.78c-0.71,0.48-1.7,1.16-2.84,1.82
		c-1.14,0.65-2.46,1.26-3.77,1.52c-2.73,0.54-5.52,0.81-8.3,0.79c-1.87-0.02-4.46,0.1-6.21-0.65
		C473.3,404.41,480.75,405.04,485.76,401.64z"/>
	<path d="M524.33,445.02c-1.14,0.14-1.72,1.53-2.31,2.36c-2.2,3.07-5.68,3.92-9.16,4.91c-5.07,1.45-10.52,2.3-15.79,3.13
		c-1.91,0.3-3.8,0.6-5.67,0.92c-6.37,1.1-14.77,2.39-23.27,2.62c-3.25,0.09-6.58-0.03-9.79-0.14c-3.08-0.11-6.26-0.22-9.42-0.16
		c-3.6,0.07-7.25,0.2-10.77,0.32c-3.5,0.12-7.12,0.24-10.68,0.32c-7.82,0.16-15.65,0.11-23.44-0.69c-3.99-0.41-7.96-1.02-11.87-1.9
		c-2.4-0.54-4.02-1.43-5.61,0.89c-0.64,0.93-1.12,1.95-1.44,3.03c-0.11,0.37-0.29,3.02-0.43,3.1c2.37-1.44,4.61-3.9,7.49-3.79
		c3.29,0.13,6.37,0.96,9.62,1.35c6.32,0.76,12.7,1,19.06,1c2.25,0,4.48-0.03,6.68-0.08c3.58-0.07,7.21-0.2,10.72-0.32
		c3.52-0.12,7.16-0.25,10.74-0.32c3.07-0.07,6.22,0.05,9.26,0.15c3.26,0.11,6.64,0.24,9.98,0.14c8.69-0.24,17.22-1.55,23.68-2.66
		c1.86-0.32,3.74-0.62,5.63-0.91c5.36-0.84,10.9-1.71,16.14-3.21c2.61-0.75,5.19-1.88,7.83-2.5c2.09-0.5,4.52-0.31,6.69-0.55
		C528.61,451.98,527.87,444.58,524.33,445.02z"/>
	<path d="M384.35,396.01c-4.63,6.08-10.18,14.02-14.4,20.95c-1.4,2.29-2.41,4.02-3.42,5.82c-0.98,1.75-2.09,3.52-3.55,6.03
		c-0.72,1.26-1.54,2.71-2.36,4.49c-0.41,0.89-0.82,1.87-1.18,2.96c-0.37,1.08-0.67,2.3-0.81,3.64c-0.21,2.64-0.2,5.57-0.03,9
		c0.19,3.42,0.6,7.29,1.53,11.62c0,0-0.3-1.85-0.52-4.89s-0.33-7.27,0.03-11.97c0.1-1.16,0.19-2.41,0.38-3.56
		c0.2-1.15,0.53-2.3,1.01-3.43c0.93-2.26,2.25-4.43,3.62-6.53s2.81-4.15,4.07-6.22c1.23-2.02,2.38-3.93,3.42-5.65
		c2.23-3.72,7.06-12.04,11.65-19.26c4.55-7.23,8.79-13.4,8.79-13.4S388.97,389.92,384.35,396.01z"/>
	<path d="M525.33,390.45c-0.68-0.88-1.23-1.61-1.59-2.12c-0.37-0.51-0.58-0.79-0.58-0.79s2.12,3.69,5.49,8.41
		c3.33,4.74,7.74,10.56,10.97,15.68c2.12,3.45,3.18,4.93,3.99,9.14c0.39,2.08,0.68,4.8,0.68,8.68c0,1.94-0.08,4.16-0.2,6.74
		c-0.11,2.58-0.31,5.51-0.28,8.87c0,0,0.08-1.41,0.31-3.71s0.66-5.48,1-9.08c0.34-3.59,0.58-7.61,0.11-11.54
		c-0.22-1.96-0.71-3.89-1.46-5.64c-0.2-0.43-0.4-0.87-0.61-1.27c-0.22-0.38-0.43-0.76-0.64-1.13c-0.41-0.74-0.87-1.43-1.27-2.09
		c-0.9-1.41-2.45-3.6-4.35-6c-1.89-2.41-4.12-5.05-6.2-7.54C528.6,394.56,526.69,392.21,525.33,390.45z"/>
	<path d="M501.92,475.58c-2.39,0.64-5.74,1.32-9.53,1.81c-7.56,1.01-16.89,1.2-23.37,1.46c-3.48,0.15-11.23,0.51-18.13,0.11
		c-3.45-0.18-6.67-0.5-9.04-0.8c-1.18-0.15-2.15-0.28-2.81-0.39c-0.67-0.1-1.05-0.15-1.05-0.15s1.09,0.34,2.93,0.85
		c1.85,0.51,4.47,1.16,7.53,1.74c6.11,1.19,14.02,1.96,20.66,1.75c4.39-0.14,6.53-0.36,11.19-0.97c2.33-0.32,5.28-0.75,9.4-1.57
		c2.06-0.43,4.41-0.96,7.08-1.72c2.67-0.77,5.67-1.77,8.94-3.26c0,0-0.36,0.12-1.02,0.32C504.07,474.98,503.1,475.25,501.92,475.58z
		"/>
	<path d="M451.25,444.92c-2,0.37-3.91,0.85-5.81,1.3c-7.56,1.82-14,3.91-14,3.91s4.96-1.1,11.75-2.28c1.7-0.29,3.51-0.59,5.39-0.88
		c1.9-0.31,3.75-0.56,5.69-0.56c3.84-0.01,7.79,0.57,11.19,1.5c2.32,0.63,4.11,1.13,6.05,1.4c0.96,0.14,1.97,0.21,3.11,0.14
		c0.56-0.03,1.17-0.11,1.8-0.28c0.32-0.08,0.64-0.17,0.96-0.31c0.16-0.07,0.33-0.14,0.5-0.21c0.14-0.07,0.28-0.14,0.43-0.21
		c1.16-0.57,2.48-1.23,4.04-1.91c1.57-0.68,3.39-1.4,5.6-1.9c2.2-0.53,4.84-0.62,7.91-0.42c3.06,0.21,6.52,0.8,10.45,1.56
		c0,0-1.63-0.45-4.32-1.11c-2.69-0.63-6.48-1.5-10.86-1.55c-4.48-0.07-9.18,1.67-13.4,3.48c-0.56,0.25-1,0.42-1.46,0.54
		c-0.47,0.12-0.96,0.18-1.46,0.2c-1,0.04-2.03-0.07-3.03-0.25c-2.01-0.36-3.92-0.95-5.71-1.42c-1.94-0.55-5.2-1.11-8.92-1.18
		C455.26,444.47,453.26,444.58,451.25,444.92z"/>
	<path d="M391.62,304.31c-1.73,0.91-2.58,1.38-4.41,2.45c-1.84,1.03-4.64,2.71-10.59,5.4c0,0,2.67-0.73,5.98-1.92
		c3.32-1.17,7.27-2.84,9.91-4.26c1.43-0.76,4.45-2.71,7.01-4.58c2.57-1.86,4.71-3.62,4.71-3.62s-1.98,1.05-4.32,2.29
		C397.04,301.53,393.88,303.15,391.62,304.31z"/>
	<path d="M616.6,260.47c-2.01-1.45-5.57-2.96-9.12-4.42c-2.23-1.71-4.84-2.65-7.63-3.27c-0.43-0.22-0.84-0.43-1.2-0.63l-4.74-0.34
		c-0.14-0.02-0.28-0.04-0.41-0.06c-1.25-0.17-2.55-0.33-3.87-0.54c-5.01-0.79-10.36-1.44-16.01-1.94c-0.41-1.28-0.82-2.56-1.24-3.83
		c-0.07-0.22-0.15-0.45-0.22-0.67c-0.07-0.47-0.13-0.95-0.22-1.41c-0.22-1.28-0.71-2.49-1.39-3.62c-0.81-2.66-1.5-5.28-1.96-7.9
		l-0.14-0.77c-2.55-14.5-5.19-29.5-11.33-43.35c-7.21-16.23-16.9-32.11-28.81-47.2c-13.36-16.9-28-30.17-43.52-39.42
		c-16.23-9.68-35.73-15.48-59.61-17.74c-3.78-0.36-7.27-0.56-10.67-0.61c-11.04-0.15-22.05,0.97-32.74,3.34
		c-10.29,2.29-20.09,6.25-29.22,10.73c-41.96,18.38-79.4,54.64-96.75,93.31c-10.63,23.7-10.28,67.39-9.9,92.6
		c-3.9,6.43-4.18,16.58-3.93,22.68c-0.28-0.03-0.56-0.05-0.85-0.06c-5.52-0.24-11.13,1.95-14.26,5.57
		c-3.47,4.01-4.46,11.22-5.13,16.06c-1.36,9.88-0.56,19.67,2.32,28.32c2.46,7.39,6.44,14.46,10.3,21.3
		c1.51,2.69,2.94,5.22,4.28,7.77l1.9,3.63c4.44,8.46,9.02,17.21,13.86,25.66c2.24,3.9,5.68,6.34,9.7,6.87
		c0.55,0.07,1.1,0.11,1.65,0.11c2.97,0,5.97-1.03,8.67-2.95c1.49,5.27,3.12,10.55,5.02,15.76c6.24,17.1,13.67,32.66,22.23,46.63
		c-6.03,3.07-10.46,9-12.07,16.36c-1.61,7.38-5.93,18.19-10.5,29.63c-7.6,19.04-14.78,37.03-13.16,46.76
		c2.43,14.59,35.38,87.55,37.73,92.73c0.22,0.7,0.46,1.4,0.69,2.1c1.02,3.06,1.99,5.96,1.92,8.83c-0.11,4.69,0.98,8.89,2.2,13.15
		c2.44,8.48,5.74,16.79,8.93,24.83l0.61,1.53c0.77,1.94,2.11,2.58,3.1,2.77c0.27,0.05,0.54,0.08,0.8,0.08c0.91,0,1.79-0.3,2.53-0.89
		c2-1.57,2.3-4.57,2.47-8.03c0.01-0.27,0.02-0.49,0.02-0.52c0.28-1.77,0.97-3.52,1.69-5.38c0.74-1.91,1.51-3.88,1.93-6.06
		c0.72-3.79,2.99-7.71,5.18-11.5c0.45-0.77,0.89-1.54,1.31-2.29l0.6-1.07l-0.22-1.21c-1.82-9.94-6.24-37.36-4.85-44.8
		c0.99-5.27,7.28-8.87,12.33-11.75l0.72-0.41c6.27-3.6,15.32,5.06,17.94,7.8c1.94,2.03,3.73,4.18,5.63,6.45
		c3.43,4.12,6.98,8.38,11.46,11.79l0.14-0.19c6.65,11.75,13.91,23.71,19.71,30.83c12.76,15.65,27.71,63.79,27.86,64.28l3.01,9.74
		l3.43-9.6c1.27-3.55,12.35-35.09,10.46-47.68c-1.52-10.16-0.83-36.82-0.62-43.74c3.01-4.53,6.79-8.45,11.23-11.65
		c1.91-1.38,4.02-2.57,6.26-3.83c1.43-0.81,2.91-1.64,4.34-2.54c0.1-0.06,0.19-0.11,0.27-0.17c0.11,0.21,0.24,0.47,0.38,0.77
		c0.96,1.97,1.63,4.3,2.18,7.55c0.41,2.43,1.25,4.56,2.07,6.61c0.74,1.87,1.43,3.63,1.72,5.43c0.23,1.44,0.44,2.87,0.65,4.3
		c1.3,8.77,2.64,17.83,7.66,26.19c5.91,9.85,10.66,19.34,11.02,21.39l0.01,3.22l3.31,0.08c0.08,0,0.16,0,0.24,0
		c2.24,0,2.65-0.94,5.69-7.89c1.64-3.76,3.95-9.16,6.66-15.61c5.97-14.21,13.17-31.74,19.76-48.1
		c13.08-32.47,28.73-72.64,29.08-79.6c0.62-12.42-13.89-54.19-15.55-58.92l-1.2,0.42c0.58-1.39,1.15-2.8,1.74-4.24
		c7.57-18.68,13.93-38.07,20.08-56.83c2.41-7.34,4.9-14.93,7.42-22.36c1.11-3.26,2.35-6.56,3.54-9.76
		c2.61-6.96,5.3-14.15,6.96-21.64c2.13-9.64,3.1-20.27,2.96-32.49c-0.06-5.66-0.25-10.96-0.56-15.97
		c10.1-1.99,17.96-4.99,19.96-9.49c3.58-8.05,5.16-17.09,6.69-25.84c0.11-0.63,0.22-1.26,0.33-1.89c0.93-0.23,1.69-0.97,1.87-1.97
		c0.24-1.27,0.49-2.56,0.75-3.86c0.61-1.38,1.06-2.43,1.12-2.67c0.22-0.88,6.78-5.47,7.22-6.35
		C620.97,286.08,620.53,263.32,616.6,260.47z M588.85,256.16c1.36,0.22,2.7,0.39,3.99,0.56c3.47,0.46,6.41,0.85,8.83,1.81
		c1.36,1.08,2.53,2.15,3.1,3.04c0.76,1.18,1.42,3.11,2.04,5.33c-13.04,6.13-25.73,12.92-31.19,15.89c0.07-0.54,0.14-1.08,0.22-1.62
		c0.51-3.79,1.04-7.71,1.24-12.02c0.23-5.03-0.65-9.92-1.93-14.71C579.95,254.91,584.53,255.48,588.85,256.16z M501.92,307.71
		c-0.18-0.51-0.34-1.04-0.51-1.56c0.36,0.15,0.74,0.3,1.14,0.45c2.83,1.09,6.49,2.18,9.52,3.03c2.01,0.57,3.03,0.82,5.26,1.28
		c1.12,0.23,2.53,0.51,4.55,0.84c2.01,0.31,4.64,0.7,8.13,0.67c0,0-2.94-0.34-6.51-1.35c-3.57-0.98-7.8-2.55-10.9-3.38
		c-1.67-0.47-5.43-1.09-8.72-1.74c-0.97-0.18-1.9-0.39-2.73-0.58c-0.52-1.59-1.02-3.19-1.49-4.82c2.39-0.46,4.77-0.94,7.23-0.97
		c-0.59-0.54-1.44-0.61-2.22-0.78c-0.78-0.16-1.63-0.54-1.85-1.3c-0.15-0.52,0.06-1.07,0.27-1.57c1.18-2.78,1.69-5.64,3.87-7.82
		c0.17-0.17,0.34-0.35,0.51-0.54c-0.15,4.24,1.47,9.7,4.74,10.65c7.83,2.29,21.74,3.12,24.47-6.99c0.92-3.4,1.12-7.13,0.15-10.55
		c-0.02-0.06-0.05-0.19-0.11-0.37c1.39,0.27,2.77,0.62,4.11,1.07c4.5,1.53,7.93,6.36,9.38,10.7c0.08,0.25,0.16,0.53,0.09,0.79
		c-0.08,0.28-0.32,0.48-0.55,0.66c-1.35,1.06-2.69,2.13-4.04,3.19c4.84-1.54,9.94-2.23,15.02-2.02c-1.56-1.48-3.04-3.06-4.41-4.72
		c-1.96-2.37-3.44-5.09-5.71-7.18c-2.05-1.89-4.44-3.37-7.01-4.45c-5.09-2.14-10.75-2.75-16.18-2.84c-1.49-0.02-2.97-0.02-4.46,0.04
		c-5.53,0.22-11.43,2.05-15.87,5.36c-4.19,3.13-6.96,8.02-8.59,12.85c-0.13,0.39-0.24,0.79-0.35,1.19c-0.42-1.7-0.83-3.41-1.2-5.13
		c0.94-1.81,2.33-3.93,4.21-5.99c2.42-2.68,5.62-5.33,9.17-7.36c3.54-2.02,7.58-2.99,11.36-3.36c2.5-0.26,4.41-0.32,6.38-0.41
		c1.96-0.07,4.05-0.22,6.75-0.3c1.36-0.02,2.9-0.01,4.69,0.2c1.78,0.21,3.82,0.6,6.05,1.51c2.19,0.95,4.67,2.41,7.2,4.44
		c2.52,2.06,5.06,4.85,7.17,8.58c0,0-0.2-0.41-0.57-1.14c-0.39-0.72-0.96-1.77-1.79-3.01c-1.64-2.47-4.45-5.63-8.33-8.24
		c-1.88-1.34-4.17-2.54-6.61-3.23c-2.44-0.72-5.01-1.06-7.51-1.17c-2.53-0.1-4.9-0.03-7.2-0.03c-2.3,0.02-4.5,0.11-6.49,0.33
		c-2.13,0.25-5.66,0.82-9.33,2.59c-3.69,1.76-7.18,4.67-10.02,7.77c-2.41,2.65-4.2,5.54-5.3,7.99c-0.84-3.98-1.61-8.32-2.43-13.62
		c-0.12-0.79-0.3-1.64-0.48-2.53c-0.53-2.62-1.14-5.58-0.39-7.5c0.27-0.69,0.6-1.36,0.99-2c1.52-2.51,3.43-4.41,5.62-5.84
		c-0.22,0.52-0.46,1.03-0.66,1.55c1.01-0.96,2.02-1.91,3.03-2.87c0.21-0.1,0.43-0.2,0.64-0.3c-0.57,1.14-1.14,2.29-1.71,3.43
		c4.43-3.28,10.35-4.69,15.96-6.1c1.48-0.06,2.98-0.08,4.48-0.09c-0.03,0.1-0.07,0.21-0.08,0.31c3.7-0.11,7.41-0.22,11.11-0.34
		c3.43-0.07,6.79-0.1,10.07-0.1c5.64,1.3,11.19,2.99,16.6,5.07c-0.36-0.43-0.72-0.86-1.08-1.29c2.2,1.84,4.41,3.68,6.61,5.53
		c-1.16-2.59-2.82-4.97-4.86-6.94c4.09,3.3,7.54,7.4,10.13,11.98c0,0.5,0,0.99-0.03,1.49c-0.18,4.01-0.69,7.78-1.18,11.42
		c-0.81,6.02-1.65,12.25-0.97,19.41c0.43,4.46,1.9,9.05,3.32,13.5c1.24,3.89,2.42,7.56,2.88,10.96c0.6,4.41,1.06,9.07,1.39,14.02
		c-18.2,2.59-41.31,2.79-51.92,2.26c-9.9-0.49-15.37-12.98-18.99-21.25l-0.31-0.7c-1.15-2.63-2.22-5.37-3.23-8.14
		C501.97,309.67,502.25,308.66,501.92,307.71z M522.99,144.73c11.56,14.64,20.96,30.04,27.94,45.75
		c5.81,13.09,8.37,27.67,10.85,41.77l0.01,0.04c-0.1-0.05-0.2-0.1-0.3-0.15c0.1,0.77,0.21,1.53,0.31,2.3
		c-0.05-0.05-0.09-0.1-0.15-0.14c-2.05-1.51-7.93-0.69-10.39-0.37c-2.42,0.32-4.46,0.73-6.92,0.3c-7.09-1.24-14.93-1.2-21.74,1.69
		c2.17-0.94,4.01-2.63,5.14-4.71c-3.11,1.74-5.84,4.14-7.98,6.99c0.72-1.2,1.22-2.53,1.44-3.91c-2.63,2-4.89,4.5-6.61,7.32
		c1.52-3.04,2.61-6.3,3.22-9.64c-5.65,5.34-10.45,11.57-14.22,18.37c-5.33,1.75-10.03,4.88-13.39,10.43c-0.12,0.2-0.22,0.4-0.33,0.6
		c-11.05-3.2-28.79-3.9-40.67-0.18c-3.43-6.66-14.3-12.71-23.66-16.19c-0.27-0.1-0.59-0.2-0.93-0.3c-0.34-0.88-0.65-1.76-0.89-2.64
		c-0.31-1.13-0.62-2.18-0.99-3.19c-0.7-1.89-1.63-3.61-3.2-5.32c-1.42-1.54-3.7-2.24-5.03-3.65c3.45,3.68,6.2,8.02,8.04,12.72
		c-3.27-5.37-7.76-9.99-13.02-13.43c-0.71-0.46-1.43-0.9-2.16-1.32c3.98,4.17,7.26,9.02,9.65,14.27
		c-5.01-6.89-11.55-12.66-19.02-16.77c1.62,2.03,3.24,4.07,4.86,6.1c-1.56-2.13-3.85-3.72-6.4-4.44c1.42,0.71,2.92,2.4,4.09,3.48
		c-3.36-1-6.01-2.93-9.18-4.2c-3.94-1.57-9.03-1.43-13.22-1.78c-11.31-0.97-23.03-1.15-34.11,1.83c1.66-0.32,3.22-1.18,4.37-2.41
		c-4.95,0.99-9.8,2.52-14.42,4.56c2.57-1.83,5.14-3.67,7.71-5.5c-9.88,4.69-18.68,11.04-28.15,16.43c-0.03,0.02-0.07,0.03-0.1,0.05
		c-4.97,0.32-9.99,0.6-14.84,1.79c-4.91,1.21-10.81,1.74-15.03,4.7c-3.08,2.16-5.74,4.88-8.65,7.43c-3.48,3.05-6.88,6.19-10.22,9.4
		c0.2-2.51,0.45-5.02,0.76-7.52c2.59-21.27,8.8-41.78,11.32-63.17c1.77-14.95,11.55-35.26,20.88-48.22
		c12.69-13.09,26.92-23.77,39.93-31.26c13.97-8.04,29-16.21,45.66-19.91c0.32-0.07,0.63-0.13,0.95-0.2c3.49,0.02,6.5,0.9,10.86,1.98
		c16.24,4.02,34.75,6.22,51.42,4.41c4.6-0.5,9.1-1.26,13.58-1.69c7.66,2.57,14.69,5.78,21.27,9.7
		C496.13,115.76,510.15,128.48,522.99,144.73z M439.35,291.69c-0.61,0.27-1.21,0.65-1.73,1.05c0.04-0.3,0.08-0.6,0.12-0.91
		c0.53-4.54,0.93-10.11-0.35-14.2c-0.35-1.05-1.09-2.67-2.16-4.34c-1.06-1.68-2.42-3.42-3.77-4.99c-1.35-1.56-2.66-2.96-3.63-3.98
		c-0.96-1.02-1.58-1.67-1.58-1.67s1.55,2.39,3.45,5.31c1.96,3.04,4.29,6.99,5.37,10.43c0.34,1.15,0.51,1.95,0.66,2.91
		c0.16,0.93,0.32,1.9,0.47,3.24c0.24,1.9,0.44,4.59,0.43,9.03c-0.15,0.14-0.29,0.28-0.4,0.41c-2.17,2.41-3.42,4.88-4.81,7.75
		c-1.1,2.27-3.63,4.82-1.09,7.22c1.27,1.21,2.65,1.26,3.98,0.72c-0.13,0.43-0.25,0.86-0.37,1.28c-0.31,1.04,0.1,2.12,0.94,2.72
		c-1.34,5.37-5.89,19.27-18.08,24.94c-7.7,3.58-17.74,3.75-26.6,3.91c-1.51,0.03-2.99,0.05-4.41,0.09
		c-15.04,0.43-30.19,0.01-41.72-0.4c-2.05-0.07-4.14-0.09-6.17-0.11c-6.26-0.06-12.73-0.12-18.8-1.79
		c-6.63-1.83-12.35-5.86-16.11-11.34c-3.76-5.47-4.52-11.6-5.34-18.1c-0.16-1.26-0.32-2.54-0.5-3.81c-1.55-10.86-2.91-21.65-4-30.71
		c-0.11-2.84-0.37-6.15-0.4-6.59c-0.35-5.78-0.04-12.93,4.58-16.94c2.22-1.92,4.71-3.36,7.34-4.51c-0.09,0.16-0.19,0.32-0.28,0.47
		c-0.91,1.53-1.66,4.46-2.89,5.64c2.76-2.66,5.53-5.32,8.29-7.98c0.24-0.07,0.48-0.15,0.72-0.22c-4.61,5.22-9.07,10.58-13.36,16.06
		c7.68-5.66,15.54-11.41,24.65-14.25c-1.32,1.46-2.64,2.91-3.95,4.37c5.12-1.93,10.6-2.87,16.07-2.76
		c12.63-1.09,25.53-3.07,38.2-3.27c1.86-0.03,3.67,0.44,5.53,0.26c2.73-0.26,5.25-0.97,8.04-0.9c5.57,0.13,11.03,1.64,16.34,3.2
		c-1.75-0.9-3.44-1.93-5.05-3.07c1.81,0.16,3.57,0.33,5.27,0.5c4.91,2.11,9.83,4.21,14.74,6.32c-1.34-1.69-2.68-3.39-4.01-5.08
		c2.08,0.28,3.94,0.56,5.54,0.85c0.9,0.78,1.75,1.63,2.52,2.55c-0.27-0.74-0.54-1.48-0.8-2.22c1.53,0.31,2.73,0.62,3.55,0.92
		c0.79,0.29,1.57,0.6,2.33,0.92c0.95,1.12,1.87,2.25,2.75,3.42c-0.41-0.93-0.85-1.86-1.3-2.81c9.85,4.28,17.36,10.05,17.7,13.88
		C445.5,267.69,442.64,279.47,439.35,291.69z M417.89,242.28c0.47,0.4,0.91,0.83,1.37,1.25c-0.32-0.05-0.64-0.11-0.98-0.16
		C418.15,243.01,418.02,242.64,417.89,242.28z M264.19,379.93c-0.14-0.07-0.27-0.13-0.41-0.21c-1.44-0.8-2.85-2.05-3.88-3.55
		c-1.04-1.49-1.7-3.25-2.05-4.89c-0.23-1.09-0.31-1.93-0.36-2.79c-0.05-0.86-0.07-1.76,0.04-2.98c0.12-1.22,0.39-2.79,1.24-4.89
		c0.13-0.32,0.28-0.66,0.45-1C260.53,366.14,262.2,372.81,264.19,379.93z M240.84,312.14c2.61,0.11,4.31,1.44,7.1,3.78
		c0.58,0.49,1.17,0.98,1.79,1.47c1.89,1.5,3.91,2.84,5.9,4.05c0.19,3.5,0.32,6.63,0.36,9.27c0.04,2.87,0.18,5.68,0.38,8.47
		c-0.54-0.92-1.13-1.88-1.77-2.85c-1.05-1.61-2.23-3.27-3.5-4.91c-1.21-1.57-2.43-3.27-3.74-4.89c-1.32-1.62-2.7-3.19-4.3-4.52
		c-1.59-1.33-3.36-2.45-5.49-2.91c-1.13-0.2-2.6-0.22-4.18,0.26c-1.29,0.4-2.75,1.12-3.91,2.42c0.56-2.57,1.36-5.08,2.52-6.43
		C234.07,312.96,237.94,312.01,240.84,312.14z M244.64,381.24c-1.39-2.64-2.91-5.34-4.38-7.95c-3.7-6.56-7.52-13.35-9.77-20.12
		c-2.2-6.6-3.01-13.99-2.42-21.6c0.1,0.75,0.22,1.5,0.35,2.23c0.61,3.44,1.52,6.56,2.3,8.8c0.77,2.24,1.39,3.61,1.39,3.61
		s-0.25-1.1-0.57-2.96c-0.32-1.85-0.68-4.47-0.85-7.47c-0.09-1.5-0.13-3.1-0.11-4.75c0.03-1.65,0.03-3.39,0.4-4.76
		c0.09-0.34,0.2-0.67,0.34-0.97c0.13-0.25,0.26-0.47,0.45-0.68c0.36-0.42,0.86-0.77,1.43-1.04c1.14-0.53,2.53-0.68,3.61-0.46
		c0.55,0.12,1.14,0.36,1.68,0.64c-0.09,0.51-0.2,1.16-0.34,1.95c-0.32,1.94-0.72,4.67-1.07,7.84c-0.34,3.17-0.6,6.79-0.63,10.48
		c-0.02,3.7,0.16,7.41,0.58,10.82c0.28,2.25,0.59,3.93,0.99,5.64c0.41,1.71,0.92,3.44,1.79,5.76c0.9,2.29,2.16,5.24,4.59,8.87
		c1.2,1.81,2.73,3.82,4.61,5.94c0.91,1.06,1.85,2.26,2.95,3.47c0.93,1.01,2.01,2.03,3.3,2.85c-0.42,0.77-0.77,1.53-1.02,2.21
		c-0.37,0.95-0.88,3.16-0.95,5.15c-0.03,0.99,0,1.91,0.06,2.58c0.03,0.22,0.05,0.41,0.07,0.57c-2.34-4.36-4.63-8.72-6.88-13.02
		L244.64,381.24z M272.12,410.84c-0.03,0.06-0.07,0.12-0.11,0.18c-1.31,1.99-4.77,3.1-7.02,2.8c-1.9-0.25-3.53-1.47-4.7-3.52
		c-2.31-4.03-4.56-8.14-6.78-12.26c0.01-0.14,0.02-0.3,0.04-0.49c0.04-0.53,0.11-1.28,0.27-2.13c0.28-1.7,0.87-3.77,1.53-5.43
		c0.42-1.11,0.65-1.65,1.16-2.83c0.27-0.58,0.63-1.32,1.23-2.31c0.61-0.98,1.47-2.22,2.89-3.65c0,0-0.35,0.28-0.88,0.7
		c-0.53,0.46-1.25,1.11-1.98,1.94c-0.74,0.81-1.45,1.8-2.08,2.81c-0.13,0.21-0.24,0.42-0.36,0.64c-0.06-0.05-0.11-0.09-0.18-0.15
		c-0.52-0.47-1.24-1.19-1.99-2.19c-0.76-0.99-1.55-2.26-2.44-3.7c-0.91-1.46-1.97-2.96-2.9-4.65c-1.93-3.36-3.58-7.25-4.57-11.18
		c-1.03-3.93-1.57-7.86-2.01-11.11c-0.23-1.75-0.69-4.58-1.11-7.85c-0.43-3.26-0.79-6.99-1.01-10.52c-0.23-3.53-0.33-6.85-0.38-9.29
		c-0.02-1.13-0.03-2.06-0.04-2.75c0.04,0.02,0.09,0.05,0.13,0.07c0.64,0.34,1.23,0.76,1.83,1.19c1.2,0.88,2.41,1.93,4.02,3.49
		c0.81,0.78,1.71,1.7,2.77,2.81c0.54,0.56,1.12,1.15,1.75,1.79c0.62,0.62,1.28,1.29,1.97,2.04c1.28,1.38,2.7,3.01,4.22,4.95
		c-0.43,0.14-0.91,0.3-1.41,0.47c-0.93,0.32-1.97,0.68-3.02,1.07c-0.5,0.19-1.11,0.4-1.56,0.55c-0.46,0.14-0.67,0.09-1.07-0.11
		c-0.45-0.23-0.73-0.57-1.04-0.94c-0.29-0.38-0.64-0.83-1-1.4c-0.35-0.59-0.76-1.4-1.05-2.66c-0.32-1.25-0.43-2.97-0.68-5.23
		c0,0-0.02,0.5-0.04,1.27c-0.03,0.79-0.1,1.88-0.06,3.12c0.04,1.24,0.24,2.66,0.82,3.94c0.13,0.32,0.31,0.63,0.48,0.92
		c0.16,0.27,0.33,0.55,0.51,0.82c0.36,0.53,0.86,1.07,1.46,1.35c0.28,0.14,0.78,0.34,1.38,0.27c0.6-0.08,1.04-0.35,1.5-0.56
		c0.92-0.45,1.98-1.01,2.96-1.52c0.72-0.39,1.43-0.76,2.03-1.08c0.32,0.41,0.64,0.85,0.97,1.29c0.5,5.47,1.29,10.86,2.34,16.32
		c-0.12,0.17-0.25,0.32-0.37,0.5c-1.25,1.81-2.36,4.07-2.88,6.45c-0.54,2.37-0.5,4.8-0.06,6.72c0.24,1.03,0.79,2.69,1.91,4.31
		c1.11,1.64,2.8,3.14,4.63,4.04c0.79,0.4,1.59,0.68,2.36,0.88c0.46,1.62,0.92,3.26,1.41,4.93c1.63,5.59,3.11,11.33,4.55,16.89
		c0.43,1.66,0.84,3.33,1.29,4.99C272.04,408.9,272.65,409.84,272.12,410.84z M342.27,619.08l-0.71,0.41
		c-5.94,3.39-14.07,8.04-15.63,16.39c-1.75,9.32,3.34,38.9,4.62,46.05c-0.22,0.38-0.44,0.77-0.67,1.16
		c-2.36,4.08-5.04,8.71-5.98,13.63c-0.3,1.57-0.92,3.17-1.59,4.86c-0.45,1.15-0.91,2.33-1.3,3.56c-2.22-5.72-4.35-11.53-6.02-17.36
		c-1.11-3.87-2.02-7.38-1.93-11.12c0.09-4.06-1.11-7.66-2.27-11.14c-0.24-0.73-0.49-1.46-0.72-2.19l-0.15-0.38
		c-12.09-26.68-35.44-80.08-37.3-91.23c-1.31-7.87,6.17-26.6,12.77-43.13c4.68-11.71,9.09-22.77,10.82-30.7
		c1.22-5.58,4.59-10,9.1-12.04c0.5,0.76,1.01,1.52,1.51,2.28l-0.45,0.06c3.16,25.09,10.85,83.98,13.94,88.92
		c1.77,2.84,10.56,10.97,24.83,24.03c7.37,6.74,16.54,15.14,17.63,16.64c0.5,0.75,2.44,4.38,4.68,8.58
		c0.25,0.48,0.52,0.97,0.79,1.47C358.88,618.18,349.43,614.98,342.27,619.08z M431.66,734.09c-5.21-15.37-15.88-44.47-25.87-56.72
		c-9.86-12.1-24.48-39.48-32.34-54.19c-2.93-5.49-4.37-8.17-5.02-9.15c-1.2-1.81-6.35-6.59-18.69-17.88
		c-8.77-8.02-21.97-20.11-23.61-22.55c-1.92-4.35-7.56-44.24-11.53-74.73c6.91,8.93,14.38,17.04,22.42,24.24
		c3.75,3.36,7.88,6.79,12.28,10.17c19.41,14.92,43.65,28.73,66.51,37.87c4.78,1.91,14.43,2.76,25.73,2.76
		c16.58,0,36.71-1.82,50.18-4.76c-5.27,11.47-12.76,21.99-20.04,32.21c-3.19,4.47-6.49,9.1-9.57,13.76
		c-8.58,12.98-16.31,24.72-23.62,35.88l-0.52,0.79l-0.03,0.94c-0.05,1.4-1.2,34.38,0.64,46.66
		C439.61,706.3,435.28,722.49,431.66,734.09z M550.42,560.48c-0.45,8.99-42.13,111.64-54.29,139.55c-3.28-6.78-8.1-14.87-8.9-16.2
		c-4.32-7.2-5.51-15.21-6.76-23.7c-0.22-1.45-0.43-2.91-0.66-4.37c-0.41-2.54-1.27-4.74-2.11-6.86c-0.72-1.81-1.39-3.52-1.69-5.25
		c-0.45-2.63-1.17-6.08-2.77-9.37c-0.97-2-2.07-4.27-4.45-4.95c-2.34-0.67-4.39,0.61-5.9,1.56c-1.3,0.81-2.65,1.58-4.08,2.39
		c-0.29,0.17-0.59,0.33-0.88,0.5c3.16-4.8,6.43-9.74,9.83-14.89c3.02-4.56,6.28-9.14,9.44-13.56c8.52-11.95,17.32-24.31,22.86-38.42
		c1.62-0.57,2.99-1.16,4.06-1.78c8.52-4.93,19.39-23.02,33.13-55.14C542.33,525.08,550.83,552.3,550.42,560.48z M576.37,355.07
		c0.13,11.54-0.81,21.96-2.8,30.96c-1.55,7.03-4.16,13.99-6.69,20.73c-1.22,3.25-2.48,6.6-3.62,9.96
		c-2.53,7.47-5.03,15.07-7.44,22.43c-6.11,18.65-12.44,37.93-19.92,56.39c-20.06,49.31-30.66,61.07-35.19,63.69
		c-11.78,6.82-69.54,10.77-82.39,5.64c-22.3-8.92-45.96-22.39-64.89-36.95c-4.26-3.28-8.26-6.59-11.89-9.84
		c-23.69-21.25-42.44-50.49-55.73-86.92c-3.59-9.84-6.24-20.09-8.8-30.01c-1.45-5.61-2.95-11.4-4.6-17.09
		c-3.18-10.91-5.7-20.63-7.38-30.13c-0.4-15.88-0.83-42.8-0.83-42.85c-0.11-6.62-0.26-13.26-0.32-19.9
		c8.98-5.12,19.18-10.4,19.18-10.4s5.92-0.16,8.57-0.24c1,8.18,2.19,17.46,3.53,26.8c0.18,1.26,0.34,2.52,0.49,3.78
		c0.81,6.45,1.64,13.12,5.67,18.99c4.03,5.86,10.15,10.17,17.23,12.13c6.32,1.75,12.92,1.81,19.31,1.87
		c2.01,0.02,4.09,0.04,6.12,0.11c8.09,0.29,17.98,0.59,28.36,0.59c4.44,0,8.97-0.05,13.49-0.18c1.42-0.04,2.89-0.07,4.39-0.09
		c9.06-0.16,19.32-0.33,27.41-4.09c13.14-6.12,17.84-20.67,19.21-26.33c0.87-0.18,1.62-0.82,1.89-1.74
		c1.82-6.21,10.19-35.04,11.38-45.13c9.74-3.35,26.69-3.39,38.02-0.09c-0.01,0.28-0.01,0.57,0,0.85c-1.42,1.9-2.83,4.03-4.06,6.32
		c-1.65,3.05-2.98,6.41-3.54,9.71c-0.13,1.11-0.29,2.06-0.27,2.99c0,0.46-0.02,0.91,0,1.33c0.03,0.41,0.06,0.81,0.09,1.22
		c0.13,1.62,0.37,3.28,0.82,5.49c0.91,4.43,2.73,11.15,8.16,23.6c0,0-0.37-1.4-0.98-3.65c-0.6-2.27-1.41-5.42-2.17-8.95
		s-1.43-7.46-1.77-11.24c-0.18-1.89-0.27-3.75-0.3-5.5c0-0.44-0.02-0.88-0.01-1.29c0.02-0.4,0.04-0.79,0.06-1.17
		c0.02-0.76,0.18-1.51,0.24-2.21c0.26-1.51,0.72-3.99,1.69-6.81c0.64-1.92,1.51-3.98,2.47-6.01c0.13,0.7,0.26,1.39,0.4,2.04
		c0.16,0.81,0.32,1.58,0.43,2.3c0.87,5.6,1.69,10.17,2.59,14.38c0.03,0.15,0.07,0.29,0.1,0.44c-0.41,0.56-0.55,1.36-0.6,2.08
		c-0.32,4.74,0.83,9.29,1.44,13.95c0.19,1.44,0.48,2.62,2.01,3.07c1.15,0.34,1.9,0.1,2.38-0.44c0.4,0.82,1.21,1.34,2.09,1.39
		c1.02,2.81,2.11,5.58,3.28,8.25l0.31,0.7c3.81,8.72,9.58,21.9,20.72,22.45c2.56,0.13,6.57,0.23,11.46,0.23
		c11.24,0,27.12-0.53,40.69-2.49C576.14,344.84,576.32,349.79,576.37,355.07z M600.72,328.72c-1.7,3.82-8.84,6.48-18.26,8.32
		c-0.34-4.86-0.8-9.45-1.39-13.81c-0.54-3.99-1.86-8.12-3.14-12.12c-1.31-4.1-2.67-8.34-3.03-12.08c-0.07-0.77-0.12-1.52-0.16-2.27
		c5.19-1.1,25.29-5.36,33.63-7.32c-0.3,1.6-0.61,3.2-0.93,4.79c-0.31,1.58-0.62,3.15-0.91,4.69c-0.19,1.01,0.27,2,1.07,2.53
		c-0.11,0.63-0.22,1.25-0.33,1.89C605.76,311.97,604.2,320.89,600.72,328.72z"/>
</g>
</svg>
