<?xml version="1.0" encoding="utf-8"?>
<svg version="1.1" id="_x31_" xmlns="http://www.w3.org/2000/svg" xmlns:xlink="http://www.w3.org/1999/xlink" x="0px" y="0px"
	 viewBox="0 0 842 842" style="enable-background:new 0 0 842 842;" xml:space="preserve">
<style type="text/css">
	.st0{fill:#FFFFFF;}
</style>
<path class="st0" d="M583.03,367.34c-0.44-6.36-0.05-14.42-3.11-20.16c-1.1-2.07-2.88-3.9-5.15-4.52c-3.08-0.85-6.42,0.73-8.56,3.1
	c-2.14,2.38-3.32,5.44-4.45,8.43l-2.25,28.8c-0.07-4.34-0.32-8.34-0.8-11.83c0,0,10.17-50.33,3.05-90.48
	c-7.12-40.16-12.71-29.49-16.27-75.23c-3.56-45.75-67.09-77.27-139.79-64.05c-72.68,13.21-121.99,71.17-121.99,78.28
	c0,3.56-1.91,65.69-0.13,130.99c-1.1-1.32-9.3-10.93-13.09-9.51c-4.07,1.52-22.37,5.08-22.37,5.08
	c-19.82,9.15-8.13,26.43-1.02,52.86c7.12,26.43,19.82,38.63,25.92,43.21c6.1,4.57,16.27,0.51,16.27,0.51l-0.27-4.41
	c3.43,30.07,8.66,53.67,16.53,62.36c0.77,0.85,1.56,1.7,2.37,2.55c0.03,5.78,0.18,11.77,0.38,17.29c-2.7,5.85-4.93,11.92-6.64,18.14
	c-1.51,5.48-4.43,13.12-2.09,18.58c2.35,5.47,6.91,11.12,10.51,15.83c21.56,28.29,72.07,127.29,70.76,128.04
	c1.35-0.77,3.4-6.21,4.27-7.67c3.66-6.14,7.41-12.24,11.15-18.33c3.98-6.48,7.98-12.95,11.99-19.41c1.95-3.15,3.97-8.4,6.77-10.88
	c5.76-5.11,13.08-4.97,18.39,0.07c2.75,2.61,5.42,5.31,8.05,8.06c1.24,17.79,2,41.09,3.4,43.44c2.02,3.37,29.65,20.22,29.65,20.22
	s0.9-1.56,2.35-4.09c0.03,0.06,0.05,0.12,0.07,0.18c3.53-3.32,6.33-7.44,10.22-10.69c4.66-3.91,9.64-7.43,14.55-11.03
	c6.53-4.78,11.73-10.83,18.25-15.79l5.99-49.92c0.02-0.15,0.24-0.16,0.27-0.01l7.22,37.13c0,0-0.67-46.5-2.02-52.56
	s-11.46-20.89-11.46-20.89l-19.66-21.26c0.34-4.29,0.9-11.89,1.46-19.58c12.08-9.71,23.56-21.31,29.01-27.07
	c8.64-9.16,21.35-38.63,21.86-54.39c0.21-6.54,1.91-19.66,3.57-34.62c3.89-0.37,8.45-0.78,10.53-4.41c2.33-4.07,4.2-8.81,6.21-13.08
	c3.59-7.59,6.64-15.44,9.14-23.46C584.47,383.47,583.59,375.33,583.03,367.34z"/>
<g>
	<path d="M591,326.17c-1.03,1.26-2.81,1.85-4.39,1.46c3.73-4.56,7.46-9.12,11.2-13.69c-2.66,1.64-6.32,1.47-8.82-0.4
		s-3.69-5.33-2.87-8.35c1.17-4.3,5.78-7.05,6.76-11.39c1.02-4.55-2.24-8.79-4.52-12.85c-3.77-6.72-3.84-14.23-5.88-21.45
		c-1.82-6.46,1.75-11.58,3.07-17.94c1.56-7.47,1.54-15.27,0-22.75c-0.77-3.74-1.92-7.4-3.44-10.89c-0.42-0.97-5.05-8.4-4.85-8.74
		c5.19-8.78,2.38-21.38-6.04-27.13c4.6,6.83,5.05,16.23,1.13,23.47c-1.76-4.4-4.85-5.11-7.71-8.03c-0.67-0.69-4.77-9.27-4.6-9.54
		c5.36-8.3,5.57-19.27,1.99-28.48c-3.58-9.21-10.55-16.79-18.51-22.65c-5.47-4.02-11.47-6.92-17.29-10.35
		c-3.61-2.13-6.66-5.04-10.25-7.17c-4.53-2.69-9.68-3.18-14.53-5c-2.23-0.84-4.52-1.87-6.26-3.53c-0.56-0.53-3.19-5.38-3.13-5.37
		c-1.75-0.33-2.37,2.23-2.2,4c0.16,1.77-0.5,4.34-2.24,3.96c-0.5-0.11-0.89-0.46-1.27-0.8c-9.13-8.1-21.53-11.77-33.72-12.48
		c-11.95-0.69-23.6,2.42-35.46,1.9c-4.37-0.19-7.65,0.64-11.64,2.49c-3.77,1.75-11.08,4.33-13.04-1.47
		c-1.09-3.21,1.51-6.39,3.91-8.78c-4.22-0.92-8.92,1.31-10.88,5.16c-1.6,3.13-1.21,6.87,0.54,9.84c0.46,0.78,2.87,2.74,2.07,3.78
		c-0.99,1.28-10.19-1.73-11.68-1.89c-7.15-0.76-12.99,2.85-19.19,6.01c-7.53,3.83-14.94,7.95-22.77,11.16
		c-3.66,1.5-7.3,1.66-10.71,3.89c-4.24,2.78-8.14,6.53-10.95,10.75c-3,4.51-4.72,9.8-8.09,14.07c-1.47,1.87-3.31,3.22-5.38,4.36
		c-1.69,0.93-4.72,1.47-5.91,3.03c-1.37,1.78-1.5,5.49-2.53,7.63c-1.25,2.6-2.92,5.01-4.94,7.07c-2.73,2.78-6.05,4.95-8.59,7.9
		s-4.24,7.11-2.85,10.75c0.46,0.42,0.92,0.83,1.38,1.25c0.93,0.84-8.6,8.19-9.43,9.11c-2.85,3.16-5.5,7.2-7.49,10.93
		c-0.9,1.69-5.21,9.53-4.06,11.31c-1.44-2.25-2.89-4.49-4.33-6.74c-0.6,2.72-0.73,6.48-0.35,9.27c0.38,2.81,1.73,3.24,3.48,5.24
		c-3.97,1.11-7.46,3.2-9.53,6.9c-1.99,3.56-2.28,8.02-0.77,11.81c-1.28-1-2.56-2.01-3.84-3.01c2.1,4.18,4.95,7.99,8.37,11.19
		c-1.25-0.87-2.55-1.75-4.04-2.07c-1.49-0.32-3.24,0.06-4.1,1.31c-0.8,1.16-0.67,2.71-1.16,4.03c-0.32,0.86-1.24,1.58-2.07,1.67
		c2.45,1.1,4.6,2.85,6.16,5.05c-2.3,0.45-4.81-0.46-6.29-2.27c-0.35,1.14-0.7,2.28-1.05,3.42c-0.64-0.87-1.27-1.74-1.91-2.61
		c-2.22,4.17-3.7,9.71-1.39,13.95c2.03,3.73,6.23,7.9,10.07,9.78c-2.23-1.09-4.71-1.64-7.19-1.6c1.32,2.54,2.64,5.09,3.96,7.63
		c-2.06-0.22-3.68,2.58-2.46,4.25c5.78,1.24,11.4,3.18,16.71,5.76c-4.9,0.77-9.79,1.54-14.69,2.3c-1.69,0.27-3.75,0.86-4.08,2.55
		c-0.29,1.46,1.09,2.82,2.55,3.08c1.46,0.26,2.94-0.26,4.33-0.77c-5.03,2.29-9.79,5.18-14.15,8.59c5.63-1.57,11.7-1.48,17.28,0.25
		c-5.51,1.51-11.02,3.01-16.53,4.52c1.22,3.27,4.17,5.83,7.58,6.59c-2.33-0.01-4.66-0.01-7-0.02c4,4.14,9.26,7.22,12.34,12.06
		c0.78,1.23,1.62,2.42,2.51,3.59c-13.19,8.4-8.78,21.84-3.29,38.51c1.58,4.8,3.21,9.76,4.68,15.2
		c7.17,26.62,19.89,39.34,26.83,44.54c2.7,2.02,5.96,2.66,9,2.66c2.66,0,5.14-0.49,6.93-0.96c3.88,29.87,9.31,48.78,16.25,56.44
		c0.57,0.63,1.15,1.25,1.73,1.88c0.04,5.58,0.19,11.33,0.39,16.64c-3.21,5.17-5.03,11.54-6.57,17.13c-0.21,0.77-0.45,1.58-0.7,2.42
		c-1.62,5.48-3.64,12.29-1.27,17.79c2.21,5.15,6.14,10.26,9.6,14.77l1.21,1.59c21.21,27.83,69.01,121.72,70.32,126.85
		c-0.16-0.62,0.07-1.73,1.03-2.37c-0.01,0.02-0.03,0.03-0.04,0.04c0,0,0.06-0.06,0.19-0.14c0.01,0,2.45,4.31,2.45,4.31
		c0.04-0.02,0.07-0.04,0.11-0.06l0.89-0.53l0.06-0.29c1.03-1.14,1.94-3.03,3.15-5.67c0.38-0.82,0.76-1.66,0.96-2
		c3.65-6.14,7.46-12.32,11.13-18.3c3.98-6.48,7.98-12.94,11.99-19.4c0.67-1.08,1.31-2.32,1.99-3.63c1.29-2.49,2.75-5.31,4.32-6.71
		c4.71-4.19,10.61-4.18,15.03,0.02c2.21,2.1,4.37,4.25,6.5,6.44c0.25,0.26,0.54,0.54,0.85,0.85c0.35,5.17,0.67,10.76,0.97,16.08
		c1.11,19.72,1.6,25.74,2.73,27.62c2.11,3.51,22.02,15.89,30.49,21.05l2.16,1.32l1.27-2.2c0.15-0.26,0.82-1.43,1.86-3.24l0.12-0.11
		c1.64-1.54,3.11-3.22,4.53-4.85c1.83-2.08,3.54-4.05,5.58-5.76c3.84-3.21,8-6.24,12.02-9.17l2.4-1.75c3.51-2.58,6.66-5.51,9.7-8.34
		c2.73-2.54,5.55-5.17,8.58-7.48l0.83-0.63l4.34-36.15l4.37,22.48l4.91-0.51c-0.07-4.78-0.72-46.92-2.08-53.06
		c-1.4-6.34-10.76-20.19-11.83-21.75l-19.15-20.73c0.32-4.18,0.81-10.72,1.3-17.43c12.48-10.13,23.92-21.88,28.42-26.65
		c8.97-9.51,22-39.51,22.53-56.01c0.16-4.76,1.15-13.38,2.3-23.36c0.34-2.92,0.69-5.96,1.04-9.07c3.77-0.44,8.15-1.43,10.44-5.44
		c1.65-2.88,3.05-6.03,4.41-9.09c0.63-1.41,1.25-2.81,1.89-4.16c3.63-7.68,6.75-15.68,9.27-23.78c2.32-7.46,1.76-15.16,1.21-22.61
		l-0.15-2.12c-0.09-1.26-0.14-2.59-0.2-4c-0.22-5.43-0.48-11.55-2.88-16.52C587.76,341.24,591.07,333.79,591,326.17z M283.49,403.51
		c-0.02-0.02-0.38-0.35-0.95-0.92c-0.59-0.59-1.39-1.44-2.22-2.47c-1.69-2.05-3.36-4.98-3.87-7.57c-0.16-0.85-0.23-1.5-0.26-2.15
		c-0.01-0.65,0.02-1.3,0.27-2.19c0.24-0.91,0.82-1.99,1.65-3.68c0.39-0.86,0.72-1.87,1.08-3.02c0.24-0.74,0.51-1.56,0.88-2.41
		c0,0.4,0,0.79-0.01,1.17c-0.07,5.61-0.26,11.68,2.89,16.29c0.04,0.89,0.13,1.78,0.27,2.66C283.3,400.66,283.4,402.09,283.49,403.51
		z M251.74,377.8c-0.23,0.98-0.43,1.98-0.61,2.98c-0.46-1.67-0.95-3.79-1.28-6.18c-0.41-2.94-0.6-6.35-0.37-9.64
		c0.1-1.29,0.34-2.54,0.74-3.59c1.86,1.13,3.83,2.12,5.84,2.94c-0.41,1.2-0.88,2.53-1.38,3.96
		C253.69,371.11,252.56,374.35,251.74,377.8z M528.54,212.07c-0.85-0.74-1.43-1.78-1.56-2.9C527.48,210.15,528,211.11,528.54,212.07
		z M257.71,359.12c-0.03,0.13-0.08,0.27-0.12,0.43c-1.7-0.21-3.39-0.55-5.04-0.99c0.17-0.09,0.33-0.18,0.51-0.25
		c1.42-0.53,2.82-0.49,4.23-0.34c0.71,0.08,1.45,0.2,2.26,0.39c0.81,0.22,1.74,0.43,2.76,0.79c0.54,0.18,1.13,0.39,1.75,0.64
		c-2.08,0.11-4.17,0.04-6.24-0.21c0.08-0.77,0.11-1.22,0.11-1.22S257.85,358.63,257.71,359.12z M275.51,364.39
		c2.35,1.89,3.5,4.79,4.05,7.88c-0.09-0.21-0.18-0.41-0.29-0.64c-0.91-1.91-2.33-4.42-4.41-6.9
		C275.08,364.62,275.3,364.51,275.51,364.39z M366.76,477.27c2.12-3.37,5.28-6.07,8.94-7.65c-1.37,1.1-2.73,2.2-4.1,3.3
		c0.07-0.08,0.13-0.16,0.2-0.24C370.11,474.2,368.44,475.73,366.76,477.27z M371.49,473.03c3.66-2.4,7.32-4.81,10.97-7.21
		c2.73-1.79,5.4-4.43,8.43-5.7c2.89-1.21,5.72-2.5,8.58-3.89c4.17-2.03,8.4-3.95,12.68-5.73c9.67-4.03,20.95-4.57,30.6-0.16
		c0.55,0.28,3.05-0.77,3.7-0.94c1.46-0.37,2.91-0.74,4.37-1.11c3.66-0.93,5.74-2.53,9.5-0.96c2.22,0.93,4.39,1.66,6.4,3.03
		c0.55,0.37,1.09,0.75,1.64,1.13c4.54,3.19,8.91,6.62,13.27,10.05c3.97,3.12,8.25,6.03,11.94,9.48c5.23,4.88,5.13,13.95,3.27,20.37
		c-1.49,5.13-4.33,9.74-7.14,14.29c-2.05,3.31-4.1,6.63-6.15,9.94c-0.69,1.11-1.44,2.29-2.64,2.82c-1.56,0.69-3.36,0.08-4.96-0.53
		c-4.2-1.61-8.9-3.12-12.82-5.32c-3.41-1.92-4.99-8.47-5.7-12.01c0.77,0.63,1.54,1.26,2.3,1.88c0.07-0.65,0.14-1.31,0.21-1.96
		c1.34,0.46,2.79-0.18,4.07-0.8c2.66-1.3,4.57-2.31,6.42-4.67c1.71-2.17,2.95-4.7,3.61-7.38c-2.06,1.19-4.11,2.39-6.17,3.58
		c-0.09-0.62,0.35-1.26,0.95-1.41c-0.64,0.06-1.15,0.51-1.64,0.93c-0.48,0.42-1.04,0.84-1.68,0.81c-0.64-0.03-1.23-0.78-0.87-1.31
		c-1.21,0.52-2.42,1.04-3.64,1.56c-0.08-0.49-0.16-0.98-0.23-1.47c0,0.19-3.39,1.02-3.73,1.08c-0.04-0.41-0.27-0.85-0.42-1.22
		c-0.81,0.06-1.73-0.18-2.52,0.03c-1.17,0.3-2.26,1.46-3.21,2.18c-0.06-0.36-0.11-0.72-0.17-1.09c-0.28,0.32-0.64,0.57-1.04,0.7
		c-0.07-0.38-0.15-0.76-0.22-1.13c0.1,0.52-1.69,0.49-1.92,0.42c-0.57-0.19-1-1.07-1.64-0.86c-0.37,0.12-0.62,0.47-0.81,0.81
		c-0.2,0.34-0.38,0.7-0.7,0.92c-0.01-0.29-0.01-0.58-0.02-0.86c-0.01-0.36-2.15-0.09-2.44-0.03c-0.72,0.16-1.36,0.39-1.68,1.13
		c-0.21-0.85-0.93-1.56-1.83-1.63c-0.89-0.07-1.78,0.52-2.07,1.37c0.01-0.73,0.28-1.45,0.75-2.01c-1.22,1.16-2.71,2.03-4.32,2.52
		c0.06-0.62,0.12-1.25,0.19-1.87c-1.15,0.78-2.47,1.31-3.85,1.53c0-0.49,0-0.97,0-1.46c-1.4,0.59-2.8,1.18-4.21,1.77
		c0.15-0.83,0.29-1.66,0.44-2.49c-1.23,0.7-2.46,1.41-3.7,2.11c0.1-0.88-0.47-1.8-1.3-2.11c-0.84-0.3-1.86,0.04-2.35,0.78
		c-0.24-0.76-0.47-1.52-0.71-2.28c-1.16,0.81-2.31,1.61-3.47,2.42c-0.17-1.05-1.39-1.64-2.45-1.6s-2.06,0.51-3.1,0.76
		c-2.63,0.63-5.57-0.3-7.36-2.32c1.77,2,3.67,4.49,5.1,6.74c0.63,0.98,0.88,1.95,1.8,2.79c0.35,0.31,2.96,1.45,2.99,1.55
		c0.14,0.49,0.28,0.99,0.43,1.48c0.35-0.86,1.72-0.78,2.31-0.06c0.58,0.72,0.59,1.74,0.51,2.66c0.46-0.18,0.92-0.37,1.38-0.55
		c-1.06,1.09-1.68,2.58-1.71,4.1c1.27-0.63,2.54-1.25,3.81-1.88c-2.53,3.32-5.55,6.37-8.82,8.94c-3.44,2.69-7.11,5.08-10.97,7.13
		c-0.31-1.22-0.22-2.54,0.26-3.71c-1.12,1.61-2.65,2.95-4.4,3.84c-0.61-1.03-0.88-2.26-0.75-3.45c0.1,1.6-2.09,2.68-3.45,1.83
		c-1.36-0.85-1.53-2.97-0.54-4.23c-0.55,0.97-1.36,1.8-2.33,2.36c-0.38-2.29-0.75-4.58-1.13-6.87c-1.45,1.17-2.9,2.34-4.35,3.52
		c-1.52-5.85-2.61-11.8-3.27-17.81c-1.87,2.76-3.99,5.34-6.33,7.7c0.19-2.99,0.03-6.01-0.47-8.97c-1.42,1.46-2.85,2.93-4.27,4.39
		c-0.42-4.66-0.84-9.37-0.28-14.02C366.98,480.92,368.52,476.43,371.49,473.03z M550.69,441.87c-1.04,3.63-1.85,7.35-4.29,10.17
		c-0.35,0.4-0.72,0.78-1.14,1.14c-2.11,1.82-3.63,3.87-5.26,6.13c-1.08,1.51-2.17,3.01-3.25,4.52c-0.69,0.95-2.54,2.69-2.75,3.82
		c0.15-0.8,0.29-1.61,0.44-2.41c-2.05,2.18-3.64,4.8-4.62,7.62c-0.06-1.09-0.11-2.18-0.17-3.27c-1.32,3.56-2.65,7.12-3.97,10.69
		c-0.38-1.31-0.76-2.61-1.14-3.92c-1.17,3.18-1.78,6.57-1.79,9.96c0.03-1.28-0.28-2.57-0.91-3.7c-1.61,1.43-2.7,3.28-3.4,5.3
		c-0.82-6.15-1.64-11.66-1.69-17.83c-0.04-6.16-4.77-11.5-9.14-15.41c0,0.27,0,0.55,0,0.82c-0.51-1.18-1.71-2.26-2.82-3.04
		c-7.72-5.38-16.21-9.09-24.38-13.66c-3.53-1.97-6.42-5.02-9.98-7.15c-5.16-3.08-10.29-6.83-16.64-4.8
		c-1.71,0.55-10.74,7.92-12.12,6.49c-1.52-1.59-3.15-3.11-4.87-4.48c-1.55-1.23-3.82-1.27-5.04-2.58c-0.59-0.63-1.05-1.39-1.79-1.83
		c-0.89-0.54-2.03-0.51-3.01-0.18c-0.98,0.34-1.84,0.95-2.68,1.55c-4.22-0.35-6.65,1.44-9.86,3.6c-3.4,2.3-7.81,3.36-11.51,5.12
		c-6.95,3.29-13.66,7.06-20.09,11.28c0.69-0.96,1.37-1.92,2.06-2.87c-3.29,2.51-6.86,4.65-10.63,6.36
		c-0.05-0.64,0.36-1.29,0.95-1.53c-2.68,1.48-5.35,2.97-8.03,4.45c-1.14,0.63-2.8,0.66-4.03,1.3c-0.4,0.2-0.79,0.43-1.16,0.68
		c-0.87,0.57-1.68,1.24-2.39,1.99c-1.49,1.58-1.93,3.57-2.9,5.45c0.08-0.63,0.19-1.25,0.24-1.88c-2.69,3.38-3.63,8.01-3.65,12.24
		c-0.01,1.34-0.45,5.03,0.36,6.12c-0.4-0.53-0.79-1.07-1.19-1.6c-0.93-1.79-2.41-3.3-4.21-4.22c0.59,0.48,0.44,1.5-0.16,1.96
		c-0.6,0.45-1.47,0.4-2.15,0.08c-0.68-0.33-1.22-0.88-1.74-1.43c-0.83-0.88-1.67-1.75-2.5-2.63c0.02,0.19,0.01,0.38-0.08,0.54
		c-0.28,0.52-0.95,0.72-1.54,0.63c-0.58-0.09-1.1-0.42-1.6-0.74c-2.55-1.63-5.36-2.9-7.87-4.48c-0.38-0.24-5.71-5.31-5.81-4.21
		c-0.05,0.56-0.1,1.11-0.15,1.67c-1.34-1.34-2.69-2.69-4.03-4.03c0.15,0.44-0.33,0.9-0.79,0.9s-0.88-0.28-1.26-0.56
		c-7.5-5.6-9.95-14.03-15.34-21.22c-4.63-6.18-11.83-32.71-15.59-48.49c-0.19-3.52-0.37-7.15-0.55-10.89
		c-0.08-1.79-0.16-3.61-0.23-5.43c0.49-2.09,1.17-4.1,2.13-5.98c9.84-19.28,5.03-40.58,7.75-61.5c0.36-2.78,0.35-8.45,1.12-12.74
		c4.5-3.58,8.33-7.18,12.07-12.16c4.88-6.5,2.64-10.48,6.25-17.76c7.06-14.24,9.36-30.78,6.47-46.41c1.12,5.28,3.92,10.18,7.9,13.83
		c-3.02-2.77-5.56-10.33-4.64-14.24c0.89-3.79,2.92-7.31,5.76-9.98c3.22-3.03,7.04-2.79,10.78-4.77c-5.83,3.09-9.21,10.2-7.93,16.67
		c0.22-4.46,3.72-8.22,7.77-10.12s8.61-2.3,13.05-2.75c18.79-1.9,38.18-5.52,53.47-16.61c-3.79,4.81-7.58,9.62-11.37,14.44
		c8.15-4.66,16.92-9.48,26.29-8.86c2.69,0.18,5.33,0.81,7.95,1.43c7.33,1.75,16.03,5.36,23.6,5.1c6.38-0.22,12.88-2.07,19.34-2.45
		c3.94-0.23,7.74-1.67,11.26-3.41c2.02-1,9.9-4.71,10.26-7.17c-0.3,2.08-0.6,4.17-0.91,6.25c2.25-2.1,4.49-4.2,6.74-6.3
		c-1.53,5.99,0.06,12.7,4.12,17.37s10.49,7.16,16.64,6.46c-1.28-1.17-2.56-2.34-3.83-3.52c3.26,1.17,6.52,2.33,9.78,3.5
		c3.18,5.52,7.24,10.53,11.99,14.78c1.32,4.48,2.82,8.92,4.52,13.27c2.34,5.99,5.61,11.22,6.03,17.68c0.25,3.8,0.07,7.74-0.32,11.53
		c-0.36,3.5,0.13,6.58,0.57,10.13c0.97,7.98,1.5,16.06,3.47,23.88c1.2,4.78,0.42,9.91,0.27,14.81c-0.18,5.71-0.35,11.42-0.53,17.12
		c-0.12,3.94-0.69,8.17-0.15,12.09c0.32,2.33,1.34,4.46,1.71,6.78c0.82,5.07,0.25,10.23,0.22,15.36c-0.11,0.58-0.17,0.9-0.18,0.94
		l-0.08,0.41l0.06,0.42c1.15,8.36,1.06,20.57-0.28,37.31l-0.07,0.06l-0.02,1.07c-0.53,6.47-1.19,12.96-1.87,19.23
		C552.99,433.42,551.89,437.66,550.69,441.87z M246.55,349.88c1.53,1.66,3.16,3.24,4.89,4.69c-0.5,0.2-1.05,0.5-1.62,0.9
		c-0.57,0.43-1.14,0.97-1.64,1.63c-2.18-0.88-4.28-1.97-6.25-3.25C243.03,352.38,244.55,351.07,246.55,349.88z M274.53,440.34
		c-6.43-4.82-18.24-16.68-25.02-41.87c-1.5-5.57-3.23-10.82-4.75-15.46c-4.64-14.12-7.12-22.68-3.2-28.63
		c1.57,1.7,3.42,3.34,5.47,4.85c-0.35,0.93-0.59,1.91-0.7,2.9c-0.21,1.8-0.08,3.64,0.15,5.4c0.22,1.78,0.56,3.56,0.98,5.26
		c0.84,3.4,2.06,6.42,3.1,8.55c0.13,0.26,0.25,0.52,0.38,0.75c-0.05,0.32-0.11,0.64-0.14,0.97c-0.2,1.78-0.25,3.56-0.14,5.24
		c0.14,2.23,0.44,3.87,0.86,5.52c0.43,1.65,0.98,3.3,1.91,5.45c0.47,1.07,1.03,2.27,1.75,3.64c0.75,1.44,1.81,2.99,3.22,4.54
		c1.41,1.56,3.17,3.14,5.27,4.84c2.09,1.71,4.56,3.5,7.2,5.78c0,0-0.96-1.13-2.63-2.87c-1.66-1.75-4.08-4.09-6.42-6.91
		c-1.16-1.41-2.29-2.95-3.14-4.61c-0.21-0.41-0.42-0.83-0.59-1.25c-0.18-0.41-0.35-0.87-0.52-1.34c-0.34-0.92-0.65-1.85-0.94-2.78
		c-1.15-3.7-1.78-7.31-1.96-10.3c-0.12-1.62-0.26-4.18-0.01-7.25c0.22-3.06,0.78-6.56,1.38-9.88c0.4-2.21,0.79-4.33,1.09-6.19
		c2.66,0.98,5.38,1.62,8.04,1.81c0.01,0.13,0.06,0.72,0.04,1.61c-0.02,1.02-0.19,2.44-0.59,4.03c-0.75,3.19-2.55,6.98-3.34,10.6
		c-0.25,1.19-0.38,2.11-0.4,3.06c-0.05,0.94,0,1.93,0.21,3.26c0.25,1.31,0.72,3.04,2.11,4.97c1.4,1.93,3.79,3.79,7.24,5.54
		c0,0-0.17-0.12-0.47-0.34s-0.74-0.54-1.26-0.95c-1.03-0.83-2.48-2.01-3.66-3.63c-1.23-1.59-1.96-3.65-2.11-5.7
		c-0.13-2.07,0.18-4.1,0.52-5.76c0.18-0.9,0.48-2.36,0.88-4.07c0.39-1.71,0.86-3.68,1.11-5.58c0.26-1.9,0.27-3.7,0.11-5
		c-0.07-0.65-0.19-1.17-0.27-1.53c-0.07-0.28-0.12-0.46-0.14-0.52c2.8,0.2,5.53-0.11,8.05-1.06c0.75,0.67,1.52,1.39,2.29,2.22
		c1.46,1.56,2.91,3.47,4.24,5.79c0.23,1.76,0.3,3.55,0.31,5.2c-0.1,0.14-0.19,0.29-0.3,0.46c-0.58,0.93-1.18,2.34-1.92,3.82
		c-0.38,0.75-0.81,1.43-1.33,2.18c-0.5,0.75-1.03,1.54-1.42,2.45c-0.4,0.9-0.61,1.89-0.64,2.82c-0.03,0.92,0.08,1.77,0.23,2.53
		c0.19,0.81,0.63,2.08,1.4,3.36c0.76,1.29,1.81,2.6,2.92,3.68c1.1,1.09,2.23,1.98,3.08,2.59c0.43,0.3,0.78,0.54,1.03,0.7
		c0.24,0.15,0.37,0.24,0.38,0.25c0.93,13.89,2.05,26.41,3.38,37.51C284.1,441.83,278.17,443.07,274.53,440.34z M435.12,643.19
		c-6.33-6.01-15.06-6.06-21.74-0.13c-2.25,2-3.94,5.26-5.43,8.13c-0.63,1.23-1.23,2.38-1.8,3.3c-4.01,6.47-8.01,12.94-12,19.42
		c-3.69,6-7.5,12.2-11.17,18.36c-0.34,0.56-0.72,1.4-1.21,2.47c-0.12,0.26-0.26,0.58-0.43,0.92c-1.21-2.66-3.12-6.62-6.12-12.63
		c-5.36-10.75-12.42-24.38-19.37-37.38c-11.05-20.67-31.45-57.78-43.8-73.99l-1.22-1.6c-3.29-4.28-7.01-9.13-8.98-13.71
		c-3.15-4.73,1.61-16.7,3.77-21.2c0.24-0.5,0.51-0.99,0.78-1.47c0.29,5.57,0.53,9.22,0.54,9.33l0.09,1.42l1.27,0.63
		c0.84,0.43,84.9,42.51,102.69,56.35c18.27,14.21,23.63,24,26.07,34.33c0.52,2.2,0.96,5.85,1.36,10.28
		C437.28,645.03,436.08,644.1,435.12,643.19z M518.01,590.57c2.82,4.15,9.98,15.35,10.99,19.88c0.53,2.38,0.97,12.14,1.3,22.93
		l-1.65-8.5c-0.25-1.27-1.36-2.16-2.66-2.11s-2.35,1.02-2.5,2.3l-5.86,48.89c-2.9,2.28-5.55,4.76-8.13,7.15
		c-3.07,2.87-5.97,5.57-9.25,7.96l-2.4,1.75c-3.25,2.37-6.61,4.82-9.85,7.4c6.1-10.67,12.61-22.09,13.67-24.21
		c0.59-1.19,1.69-3.39-3.12-20.15c-1.91-6.66-4.02-13.02-4.65-14.89c0.78-5.96,6.72-51.04,8.33-65.45L518.01,590.57z M498.25,561.92
		c-0.21,2.77-0.39,5.1-0.52,6.72c-0.02,0.35-0.05,0.66-0.07,0.94c-0.66,7.94-8.66,68.68-8.75,69.29l-0.07,0.58l0.19,0.55
		c4.49,13.18,8.88,29.06,8.18,31.86c-1.52,3-12.77,22.64-19.59,34.51c-1.38,2.4-2.58,4.48-3.48,6.05c-0.17,0.3-0.34,0.58-0.49,0.84
		c-12.3-7.57-25.07-16.02-26.61-18c-0.76-2.16-1.49-15.03-2.06-25.4c-0.81-14.34-1.64-29.17-3.07-35.27
		c-2.68-11.35-8.43-22-27.85-37.1c-17.17-13.36-91.16-50.67-102.24-56.23c-0.27-4.34-1.06-18.02-1.31-31.8
		c30.46,29.92,77.9,56.26,90.66,58.81c5.73,1.15,17.56,1.96,30.71,1.96c18.55,0,39.71-1.62,50.07-6.19
		c5.31-2.34,11.14-6.11,16.93-10.46C498.65,556.58,498.44,559.43,498.25,561.92z M579.71,390.43c-2.45,7.88-5.49,15.66-9.02,23.14
		c-0.65,1.38-1.29,2.82-1.94,4.26c-1.31,2.94-2.66,5.98-4.19,8.64c-1.02,1.78-3.17,2.46-5.58,2.83c0.68-6.22,1.33-12.67,1.85-19.1
		l0.09-1.14l0,0c0.01-0.08,0.01-0.17,0.02-0.25c0.46-1.59,0.94-3.28,1.4-5c0.58-0.21,1.18-0.36,1.74-0.37
		c0.81-0.03,1.22,0.02,2.08,0.24c0.42,0.13,0.97,0.33,1.65,0.81c0.65,0.48,1.49,1.25,1.99,2.63c0,0-0.02-0.08-0.05-0.21
		c-0.03-0.14-0.09-0.34-0.17-0.58c-0.18-0.48-0.5-1.13-1.04-1.75c-0.53-0.62-1.27-1.19-2.08-1.55c-0.82-0.36-1.71-0.51-2.43-0.45
		c-0.35,0.02-0.88,0.12-1.46,0.34c0.61-2.3,1.19-4.62,1.7-6.8c0.17-0.06,0.52-0.21,1.01-0.45c0.7-0.35,1.65-0.93,2.6-1.8
		c0.95-0.87,1.9-2.03,2.57-3.39c0.69-1.35,1.08-2.88,1.18-4.29c0.06-0.93,0.01-1.63-0.09-2.34c-0.11-0.71-0.29-1.43-0.65-2.35
		c-0.37-0.93-0.95-2.04-1.92-3.44c-0.49-0.7-1.05-1.49-1.68-2.39c-0.63-0.91-1.33-1.96-1.91-3.29c0,0,0.15,0.6,0.52,1.53
		c0.37,0.94,1.01,2.19,1.74,3.56c0.72,1.37,1.5,2.88,1.91,4.38c0.42,1.5,0.5,3.02,0.42,4.24c-0.04,0.66-0.11,1.73-0.43,2.93
		c-0.31,1.2-0.9,2.51-1.67,3.62c-0.76,1.12-1.69,2.03-2.43,2.63c-0.54,0.43-0.96,0.7-1.16,0.82c0.84-3.64,1.46-6.86,1.6-8.83
		c0.29-4.11-1.45-10.04-0.99-14.27c0.33-0.52,0.69-1.06,1.09-1.64c0.5-0.74,1.03-1.52,1.57-2.31c0.35-0.52,0.69-1.1,1.01-1.69
		c1.85-1.44,3.99-2.75,5.34-4.26c0.65-0.73,1.26-1.51,1.85-2.3c0.49,0.81,0.98,1.89,1.47,3.26c0.79,2.2,1.56,5.17,2.29,9.19
		c0,0-0.05-0.87-0.12-2.28c-0.09-1.41-0.25-3.38-0.61-5.57c-0.18-1.1-0.41-2.25-0.75-3.42c-0.28-0.94-0.61-1.9-1.15-2.82
		c0.46-0.72,0.9-1.45,1.3-2.21c0.35-0.66,0.77-2.26,1.23-3.6c0.65,3.2,0.8,6.76,0.94,10.04c0.06,1.44,0.11,2.81,0.21,4.14l0.15,2.13
		C581.22,376.64,581.75,383.87,579.71,390.43z M579.12,352.1c-2.43,1.34-5.27,1.94-8.02,1.63c2.65-0.85,5.12-2.13,7.38-3.73
		C578.73,350.67,578.94,351.37,579.12,352.1z"/>
	<path d="M236.61,259.95c-0.38-0.17-0.76-0.33-1.16-0.46C235.74,259.88,236.16,260,236.61,259.95z"/>
	<path d="M340.97,469.5c0.25,0.26,0.49,0.52,0.74,0.78C341.66,469.88,341.37,469.5,340.97,469.5z"/>
	<path d="M415.61,422.88c-1.05-0.39-2.49-1-3.96-1.9c-1.45-0.91-2.94-2.08-4.04-3.46c-1.15-1.35-1.85-2.89-2.25-4.19
		c-0.22-0.71-0.54-1.86-0.65-3.27c-0.14-1.41-0.04-3.05,0.16-4.6c0.2-1.55,0.52-3,0.75-4.06c0.24-1.05,0.4-1.74,0.4-1.74
		s-0.21,0.49-0.56,1.28c-0.34,0.81-0.82,1.94-1.27,3.3c-0.45,1.36-0.87,2.95-1.05,4.63c-0.16,1.68-0.08,3.46,0.4,5.01
		c0.08,0.25,0.16,0.49,0.23,0.72c0.09,0.22,0.18,0.43,0.27,0.63c0.16,0.41,0.38,0.75,0.58,1.11c0.43,0.7,0.94,1.37,1.74,2.16
		s1.91,1.7,3.63,2.63c1.72,0.92,4.08,1.85,7.33,2.32c0,0-0.17-0.05-0.47-0.14C416.57,423.22,416.14,423.08,415.61,422.88z"/>
	<path d="M434.84,407.31c-1.44-1.32-3.22-2.71-5.41-3.38c-1.07-0.31-2.13-0.49-3.18-0.53c-1.59-0.03-4.27,0.27-5.48,1.46
		c-0.97,0.94-1.57,2.21-2,3.47c-0.35,1.02-1.1,3.05-0.69,4.13c1.08,2.81,6.27-0.97,7.67-1.66c2.47-1.21,5.17-2.32,7.97-2.15
		c2.43,0.15,4.05,2.21,5.68,3.89c0,0-0.44-0.62-1.21-1.59C437.4,409.98,436.28,408.65,434.84,407.31z"/>
	<path d="M465.28,404.67c-0.36-0.38-0.88-0.65-1.39-0.72c-0.51-0.09-0.97-0.02-1.38,0.07c-0.82,0.19-1.49,0.5-2.06,0.78
		c-0.61,0.31-1.56,0.84-2.62,1.58c-1.05,0.74-2.18,1.7-2.99,2.82c-0.82,1.11-1.31,2.32-1.47,3.23c-0.09,0.46-0.1,0.83-0.11,1.09
		c0.01,0.26,0.01,0.4,0.01,0.4s0.04-0.44,0.26-1.12c0.45-1.38,1.3-3,2.95-2.4c1.6,0.58,3.1,2.18,4.12,3.48
		c0.23,0.3,0.46,0.61,0.76,0.82s0.72,0.33,1.06,0.18c0.3-0.13,0.49-0.42,0.66-0.7c0.18-0.29,0.37-0.59,0.58-0.89
		C465.44,410.64,467.91,407.57,465.28,404.67z"/>
	<path d="M476.84,403.58c-0.05-0.35-0.11-0.73-0.17-1.14c-0.2-0.8-0.4-1.73-0.81-2.73c-0.77-2.03-2.17-4.42-4.22-7.4
		c0,0,0.34,0.7,0.88,1.82c0.53,1.13,1.27,2.71,1.85,4.52c0.6,1.81,0.94,3.86,0.82,5.81c-0.1,1.96-0.57,3.81-1.11,5.27
		c-0.5,1.58-2.02,5.12-4.38,7.64c-1.15,1.26-2.39,2.33-3.39,2.98c-0.48,0.37-0.93,0.56-1.22,0.75c-0.3,0.17-0.46,0.27-0.46,0.27
		s0.56-0.2,1.46-0.52c0.44-0.21,0.98-0.44,1.57-0.76c0.57-0.34,1.23-0.7,1.87-1.19c1.3-0.93,2.68-2.18,3.82-3.66
		c1.15-1.47,2.09-3.16,2.7-4.8c0.18-0.55,0.34-1.03,0.47-1.49c0.09-0.46,0.18-0.89,0.27-1.33c0.11-0.88,0.21-1.8,0.13-3.05
		C476.93,404.26,476.9,403.93,476.84,403.58z"/>
	<path d="M454.78,374.04c0,0,0.4,0.23,1.02,0.6c0.31,0.2,0.67,0.45,1.07,0.71c0.39,0.29,0.83,0.6,1.26,0.95
		c0.89,0.7,1.79,1.55,2.62,2.4c0.81,0.87,1.56,1.74,2.14,2.49c0.64,0.79,2.06,2.55,3.06,4.33c0.49,0.89,0.91,1.75,1.19,2.4
		c0.26,0.65,0.43,1.07,0.43,1.07s-0.07-0.34-0.18-0.89c-0.05-0.28-0.14-0.61-0.24-0.99c-0.1-0.38-0.22-0.79-0.38-1.23
		c-0.59-1.76-1.67-3.9-2.91-5.46c-0.4-0.52-0.73-0.89-1.08-1.25c-0.34-0.37-0.74-0.71-1.27-1.17c-0.55-0.45-1.25-1-2.29-1.69
		C458.16,375.64,456.76,374.82,454.78,374.04z"/>
	<path d="M418.63,327.2c-0.7-0.63-1.65-1.41-3.05-2.21c0,0,0.27,0.22,0.69,0.56c0.42,0.36,0.98,0.88,1.55,1.51
		c0.58,0.62,1.14,1.37,1.65,2.11c0.49,0.75,0.93,1.5,1.26,2.13c0.37,0.67,1.17,2.18,1.64,3.65c0.23,0.73,0.4,1.43,0.5,1.96
		c0.09,0.52,0.14,0.86,0.14,0.86s0.01-0.27,0.01-0.68c0-0.43-0.01-1.04-0.11-1.73c-0.16-1.39-0.65-3.15-1.37-4.48
		c-0.46-0.88-0.76-1.29-1.43-2.12C419.78,328.34,419.33,327.84,418.63,327.2z"/>
	<path d="M449.35,353.29c0,0,0.47-3.21,1-7.31c0.13-1.04,0.26-2.12,0.4-3.21c0.11-1.13,0.14-2.27,0.15-3.38
		c0.02-2.21,0.02-4.29,0.21-5.92c0.1-0.89,0.24-2.22,0.89-3.74c0.61-1.51,1.65-3.14,2.77-4.58c1.12-1.45,2.3-2.74,3.15-3.69
		s1.39-1.56,1.39-1.56s-0.49,0.38-1.29,1c-0.81,0.63-1.95,1.51-3.21,2.62c-1.25,1.12-2.64,2.47-3.77,4.13
		c-0.58,0.82-1.06,1.74-1.43,2.69c-0.39,0.95-0.58,1.97-0.7,2.89c-0.24,2.44-0.09,3.63,0.16,6.12
		C449.42,341.79,449.34,345.58,449.35,353.29z"/>
	<path d="M416.55,298.62c0.4-0.57,0.81-1.14,1.21-1.72C417.3,297.43,416.9,298.01,416.55,298.62z"/>
	<path d="M341.84,307.14c-1.03-0.06-2.06-0.13-3.1-0.19c5.9-1.3,11.91-1.13,17.8-2.18c2.84-0.5,6.18,0.32,9.01,0.7
		c3.22,0.43,6.43,0.97,9.62,1.59c4.31,0.85,8.65,2.37,13,2.79c1.25,0.12,12.15,3.42,12.14,3.43c0.17-0.26,0.34-0.53,0.51-0.79
		c1.34,0.78,2.67,1.56,4.01,2.34c-0.07-0.79-0.13-1.57-0.2-2.36c0.14,0.65,0.28,1.31,0.42,1.96c0.38-0.95,0.76-1.91,1.14-2.86
		c1.09,2.08,2.18,4.16,3.27,6.25c0.06-1.94,0.12-3.89,0.19-5.83c0.8,1.91,1.6,3.83,2.4,5.74c0.27-1.25,0.54-2.5,0.81-3.75
		c0.17,0.32,0.29,0.67,0.4,1.02c-0.01,1.11-0.03,2.22-0.04,3.33c5.83-5.54,8.79-13.96,7.69-21.93l-0.6-2.13
		c-0.64,1.17-1.15,2.42-1.55,3.69c-1.22,1.94-2.45,3.89-3.67,5.83c0.04-1.81,0.56-3.6,1.46-5.17c-1.26,1.78-2.52,3.56-3.78,5.34
		c-0.02-2.7-0.03-5.41-0.05-8.11c-0.31,0.88-0.61,1.75-0.92,2.63c-0.33-1.66-0.65-3.31-0.98-4.97c-0.94,0.99-2.26,1.6-3.61,1.67
		c-0.5-1.37-2.21-1.74-3.66-1.91c-10.05-1.19-20.11-2.39-30.16-3.58c-3.28-0.39-6.7-0.74-9.81,0.29c0.9-0.37,1.62-1.17,1.84-2.11
		c-1.55,0.95-3.1,1.89-4.66,2.84c0.81-0.8,1.19-2.01,0.96-3.13c-3.43,1.33-6.6,2.4-10.16,3.21c-2.19,0.5-4.31,0.92-6.15,2.15
		c-1.64,1.09-4.61,2.64-5.76,4.21c1.45-1.99,2.9-3.98,4.36-5.97c-0.14,0.09-0.29,0.17-0.43,0.26c-3.56,2.18-7.11,4.58-10.22,7.37
		c-1.07,0.96-1.74,2-2.49,3.2c-0.9,1.43-2.11,2.5-3.29,3.69c-2.69,2.7-5.11,5.67-7.22,8.84c-1.05,1.59-2.03,3.23-2.92,4.91
		c-0.46,0.88-0.9,1.76-1.32,2.66c-0.22,0.47-0.6,2.04-1,2.31c1.29-0.84,2.43-1.88,3.41-3.06c3.47-2.82,7.17-5.22,10.81-7.81
		c1.19-0.85,2.05-2.03,3.22-2.9c1.65-1.23,3.85-1.82,5.78-2.46C339.29,307.88,340.83,307.08,341.84,307.14z M413.44,317.51
		c-0.05-0.79-0.11-1.59-0.16-2.38C413.5,315.9,413.56,316.71,413.44,317.51z"/>
	<path d="M537.42,308.75c0.4,1.22,0.81,2.45,1.21,3.67c-4.69-6.01-11.22-10.56-18.48-12.87c1,0.94,2,1.88,3.01,2.82
		c-2.02-0.97-4.42-1.6-6.67-1.51c-1.66,0.07-3,0.63-4.63,0.72c-0.25,0.01-0.5,0.02-0.77,0.01c-5.14-0.22-10.27-0.43-15.42-0.48
		c-5.03-0.04-9.8-0.45-14.87,0.03c0.95-0.3,1.91-0.59,2.86-0.89c-4.08,0.06-9.17-0.3-12.23,3.06c0.7-0.77,1.4-1.54,2.1-2.31
		c-1.6,0.98-3.03,2.24-4.23,3.68c0.9-1.25,1.33-2.82,1.16-4.35c-2.29,2.15-6.13,5.68-6.38,9.03c-0.11,1.45,0.44,3.16,0.77,4.55
		c0.24,0.99,0.57,1.95,1,2.87c0.2,0.43,1.48,2.11,1.4,2.49c0.45-2.03,1.31-3.9,2.86-5.35c0.46,1.44,0.92,2.87,1.38,4.31l0,0l0,0
		c0.1,0.3,0.19,0.61,0.29,0.91c0.27-0.46,0.54-0.91,0.82-1.37c2.64-1.14,5.37-2.6,8.16-2.79c2.95-0.21,6.76,0.54,9.44-0.81
		c-0.88,0.44-1.76,0.88-2.64,1.33c9.62,0.78,19.27-0.99,28.92-0.88c6.7,0.08,12.95,1.78,18.87,4.97c-0.89-0.66-1.77-1.31-2.66-1.97
		c5.07,3.66,10.24,7.43,13.76,12.59c-0.01-3.41,1-8.26-0.64-11.32C543.79,315.1,540.58,311.62,537.42,308.75z"/>
	<path d="M379.63,470.82c0.17,0.08,0.36,0.09,0.54,0.1c1.6,0.04,2.92-0.4,4.43-0.71c0.75-0.15,1.65,0.05,2.41,0.07
		c0.86,0.03,1.72,0.03,2.58,0.03c3.36-0.03,6.7-0.28,10.05-0.54c1.81-0.14,3.68-0.28,5.51-0.38c1.67-0.09,3.35-0.16,5.05-0.22
		c4.49-0.17,9.13-0.34,13.57-1.08c1.82-0.3,14.67,1.96,17.85,2.76c1.62,0.4,5.79-0.43,11.96-1.75c3.24-0.69,6.91-1.47,7.67-1.35
		l2.85,0.48c7.69,1.29,15.42,2.77,23.24,2.22c-0.15,0.01-1.18-1.15-1.4-1.3c-0.39-0.28-1.05-0.78-1.53-0.84
		c-0.56-0.08-1.34,0.28-1.9,0.38c-0.66,0.12-1.33,0.22-2.01,0.25c-1.69,0.09-3.53-0.36-5.2-0.6c-3.65-0.52-7.29-1.13-10.93-1.74
		l-2.85-0.48c-1.02-0.18-3.68,0.38-8.29,1.37c-4.16,0.89-9.85,2.1-11.22,1.77c-2.59-0.65-16.18-3.17-18.52-2.79
		c-4.33,0.72-8.92,0.89-13.36,1.06c-1.71,0.06-3.41,0.13-5.08,0.22c-1.85,0.1-3.73,0.25-5.55,0.39c-4.13,0.32-8.32,0.71-12.46,0.51
		c-1.09-0.05-2.14-0.35-3.21-0.54c-0.97-0.18-1.8,0.3-2.63,0.78c-0.46,0.27-1.8,0.91-1.87,1.51
		C379.33,470.56,379.47,470.73,379.63,470.82z"/>
	<path d="M280.1,411.73c-1.08,1.39-2.18,3.26-2.75,4.66c-0.32,0.75-0.84,2.48-1.11,4.05c-0.28,1.57-0.34,2.95-0.34,2.95
		s0.25-1.01,0.67-2.34s1.06-2.96,1.65-4.3c0.32-0.75,0.47-1.1,0.98-2.29c0.44-0.94,1.04-2.46,2.95-5.1c0,0-0.25,0.26-0.63,0.66
		C281.15,410.43,280.63,411.03,280.1,411.73z"/>
	<path d="M578.29,371.83c-0.58-1.82-1.33-3.43-1.96-4.56c-0.32-0.56-0.59-1.02-0.79-1.32c-0.2-0.31-0.31-0.48-0.31-0.48
		s0.06,0.14,0.16,0.4c0.1,0.26,0.27,0.64,0.43,1.12c0.35,0.96,0.78,2.33,1.09,3.93c0.67,3.21,0.77,7.32,0.53,10.74
		c-0.15,2.26-0.24,3.39-0.48,5.85c-0.25,2.46-0.78,6.26-2.61,13.77c0,0,0.3-0.77,0.78-2c0.48-1.25,1.14-2.98,1.8-4.95
		c0.67-1.97,1.33-4.19,1.83-6.38s0.82-4.36,0.9-6.17c0.05-0.97,0.03-2.55-0.18-4.34C579.28,375.65,578.87,373.64,578.29,371.83z"/>
	<path d="M426.53,453.01c3.25,0.02,6.34,1.19,9.24,2.53c1.13,0.52,2.25,1.4,3.45,1.67c1.34,0.3,2.85,0.31,4.21,0.17
		c1.55-0.18,3.16-0.78,4.89-1.58c1.75-0.77,3.63-1.82,6.07-2.3c0,0-0.26,0.02-0.74,0.05c-0.47,0.06-1.16,0.15-2,0.36
		c-0.84,0.2-1.83,0.49-2.91,0.83c-1.08,0.33-2.27,0.71-3.51,0.92c-2.45,0.52-5.13-0.24-7.72-1.17c-2.59-0.94-5.1-2.06-7.36-2.7
		c-0.3-0.09-0.66-0.18-1.06-0.27c-0.18-0.05-0.46-0.09-0.72-0.13c-0.27-0.04-0.53-0.04-0.82-0.06c-1.1,0-2.25,0.22-3.39,0.55
		c-5.26,1.55-10.32,4.31-15.33,6.52c3.14-1.13,6.27-2.25,9.41-3.38C420.92,454.06,423.64,452.99,426.53,453.01z"/>
	<path d="M470.01,460.71c0,0-4.35-2.79-6.82-4.09c-1.33-0.7-6.09-2.71-6.09-2.71s3.22,2.17,5.68,3.49
		C464.4,458.27,464.44,458.18,470.01,460.71z"/>
	<path d="M455.47,482.91c-4.47-0.11-8.93-0.52-13.41-0.42c-1.25,0.03-3.26,0.17-5.58,0.36c-2.94,0.26-5.72,0.2-8.66,0.13
		c-1.59-0.04-3.19-0.07-4.78-0.11c-1.31-0.03-2.99,0.22-4.25-0.09c3.5,1.79,7.45,1.9,11.28,2.25c4.01,0.37,8.02,0.44,12.04,0.41
		c3.97-0.03,7.84-0.55,11.77-0.25c4.61,0.35,10.24-1.89,14.34-3.79c-1.98,0.52-3.87,1.18-5.9,1.35
		C460.04,482.95,457.76,482.96,455.47,482.91z"/>
	<path d="M407.2,346.87c-0.34,0.03-1.85-1.97-2.15-2.27c-0.78-0.8-1.57-1.58-2.38-2.35c-1.67-1.59-3.4-3.11-5.19-4.57
		c-3.4-2.77-7.07-5.73-11.12-7.49c-3.09-1.34-6.25-1.69-9.57-2.05c-3.46-0.37-6.95-0.57-10.43-0.33c-2.81,0.2-5.42,0.73-7.86,1.59
		c-4.19,1.48-7.89,3.94-11.26,7.37c-1.71,1.74-3.33,3.56-4.99,5.34c-0.85,0.91-1.71,1.81-2.6,2.68c-0.23,0.22-1.17,0.86-1.05,1.23
		c0.16,0.46,1.13,0.19,1.5,0.17c4.76-0.27,9.68,0.53,14.33,1.45c-2.34-0.76-4.32-2.31-6.25-3.84c0.43,0.34,5.68-5.99,6.19-6.46
		c1.76-1.65,3.48-3.59,5.77-4.37c-0.84,1.72-1.29,3.63-1.29,5.56c0,6.99,5.67,12.66,12.66,12.66s12.66-5.67,12.66-12.66
		c0-2.04-0.5-4.05-1.44-5.85c1.27,0.27,2.53,0.62,3.76,1.1c5.48,2.13,9.87,6.38,13.51,10.99c-0.99,0.99-1.99,1.99-2.98,2.98
		C400.41,347.46,403.81,347.16,407.2,346.87z"/>
	<path d="M345.35,331.11c2.78-2.01,6.28-3.75,10.02-4.92c3.73-1.2,7.68-1.83,11.29-2.08c1.2-0.05,2.24-0.15,3.22-0.13
		c0.98-0.01,1.89-0.03,2.81,0.01c1.84,0.02,3.73,0.13,6.29,0.47c2.56,0.36,5.79,0.97,10.09,2.76c4.25,1.82,9.62,4.85,15.42,10.55
		c0,0-0.29-0.32-0.81-0.9c-0.52-0.57-1.3-1.4-2.31-2.37c-2.01-1.96-5.01-4.51-8.78-6.8c-3.76-2.29-8.36-4.22-13.05-5.12
		c-2.33-0.47-4.65-0.77-6.86-0.86c-2.21-0.14-4.31-0.08-6.2,0.05c-2.03,0.18-5.31,0.59-8.92,1.7c-3.61,1.08-7.54,2.87-10.79,5.21
		c-3.28,2.3-5.78,5.13-7.28,7.38c-0.37,0.57-0.73,1.06-1,1.54c-0.25,0.48-0.47,0.89-0.65,1.23c-0.36,0.68-0.56,1.05-0.56,1.05
		s0.18-0.27,0.5-0.76c0.16-0.25,0.36-0.55,0.59-0.9c0.23-0.36,0.49-0.76,0.84-1.17C340.48,335.32,342.57,333.12,345.35,331.11z"/>
	<path d="M486.68,330.28c1.48-0.5,3.12-0.46,4.79-0.31c1.7,0.16,3.41,0.28,4.99,0.4c2.11,0.16,3.65,0.31,5.24,0.53
		c1.59,0.21,3.22,0.46,5.43,0.92c2.19,0.49,5.03,1.13,8.77,2.6c3.72,1.5,8.21,4.43,12.92,9.68c0,0-0.23-0.29-0.66-0.81
		c-0.42-0.53-1.04-1.29-1.87-2.19c-1.64-1.79-4.08-4.21-7.34-6.25c-6.62-4-15.85-6.15-22.36-6.51c-0.87-0.06-2-0.12-3.31-0.18
		c-1.29-0.05-2.82-0.2-4.53-0.04c-0.85,0.09-1.75,0.28-2.61,0.62c-0.84,0.35-1.6,0.72-2.39,1.14c-1.56,0.83-3.07,1.83-4.42,2.9
		c-2.73,2.12-4.93,4.47-6.44,6.26s-2.37,3-2.37,3s0.73-0.84,2.04-2.18c1.31-1.33,3.21-3.15,5.61-4.94
		C480.58,333.13,483.51,331.38,486.68,330.28z"/>
	<path d="M514.05,337.54c-6.18-3.78-20.8-6.93-27.81-4.33c-7,2.61-9.47,5.7-19.16,15.1c0,0-0.48,2.4,0.62,2.4
		c1.01,0,9.55,0.65,11.01,0.96c-0.97-0.51-4.96-3.09-4.96-3.09s3.94-6.81,8.83-10.72c-0.66,1.56-1.01,3.26-1.01,4.96
		c0,6.99,5.67,12.66,12.66,12.66s12.66-5.67,12.66-12.66c0-1.89-0.43-3.76-1.24-5.46c2.17,0.66,3.82,1.36,4.5,1.95
		c2.27,1.99,9.96,8.99,9.96,8.99l-5.15,4.19l9.68-1.85l4.33-0.21C528.95,350.44,520.23,341.31,514.05,337.54z"/>
	<path d="M478.92,351.76c-0.01-0.02-0.09-0.05-0.21-0.07C478.86,351.76,478.94,351.79,478.92,351.76z"/>
	<path d="M480.63,359.96c-1.08-0.42-3.51-1.24-5.66-2.04c-2.15-0.8-4-1.56-4-1.56s1.26,0.83,3.04,1.85
		c1.78,1.02,4.09,2.22,6.12,3.03c1.33,0.54,2.02,0.76,3.51,1.18c1.5,0.41,3.79,1.06,8.43,2.04c0,0-1.89-0.67-4.25-1.59
		C485.45,361.95,482.62,360.75,480.63,359.96z"/>
	<path d="M412.43,355.39c1.68-1.48,3.06-2.86,3.06-2.86s-1.32,0.87-2.88,1.9c-1.92,1.23-4.03,2.58-5.53,3.54
		c-1.16,0.75-1.72,1.14-2.93,2.01c-1.23,0.85-3.08,2.21-7.08,4.48c0,0,1.83-0.69,4.07-1.74c2.25-1.04,4.92-2.47,6.68-3.65
		C408.77,358.45,410.75,356.88,412.43,355.39z"/>
	<path d="M420.68,380.89c-1.2,1.23-2.5,2.89-3.24,4.18c-0.41,0.68-1.15,2.3-1.56,3.81c-0.21,0.75-0.35,1.47-0.42,2
		c-0.05,0.52-0.09,0.86-0.09,0.86s0.07-0.25,0.19-0.65c0.13-0.4,0.31-0.96,0.58-1.59c0.52-1.26,1.35-2.74,2.09-3.97
		c0.4-0.68,0.6-1,1.25-2.1c0.55-0.86,1.33-2.25,3.43-4.65C422.91,378.79,421.86,379.63,420.68,380.89z"/>
	<path d="M450.56,418.58c-1.08,0.37-2.48,0.61-3.66,0.65c-0.78,0.03-1.17,0.03-2.01,0c-0.42-0.03-0.96-0.08-1.71-0.24
		c-0.74-0.17-1.7-0.46-2.87-1.13c0,0,0.24,0.17,0.6,0.44c0.39,0.26,0.94,0.59,1.62,0.88c0.67,0.3,1.46,0.52,2.23,0.68
		c0.78,0.13,1.55,0.18,2.18,0.14c0.68-0.02,2.18-0.33,3.37-0.9c0.6-0.29,1.12-0.61,1.49-0.86c0.35-0.27,0.58-0.44,0.58-0.44
		s-0.2,0.1-0.51,0.25C451.55,418.2,451.1,418.41,450.56,418.58z"/>
</g>
</svg>
