<?xml version="1.0" encoding="utf-8"?>
<svg version="1.1" id="_x31_" xmlns="http://www.w3.org/2000/svg" xmlns:xlink="http://www.w3.org/1999/xlink" x="0px" y="0px"
	 viewBox="0 0 842 842" style="enable-background:new 0 0 842 842;" xml:space="preserve">
<style type="text/css">
	.st0{fill:#FFFFFF;stroke:#000000;stroke-width:6;stroke-miterlimit:10;}
	.st1{fill:none;stroke:#000000;stroke-width:3;stroke-miterlimit:10;}
	.st2{fill:none;stroke:#000000;stroke-width:1.4;stroke-miterlimit:10;}
</style>
<path class="st0" d="M619.4,567.02c-11.72,2.88-19.3,7.47-28.8,15.03c-17.99,14.32-36.5,27.72-56.33,39.39
	c-35.55,20.93-81.64,33.29-124.61,29.66c-2.8-0.23-5.59-0.54-8.36-0.92c-18.99-2.55-37.18-8.39-53.35-18.19
	c-1.15-0.7-2.3-1.39-3.43-2.08c-2.66-1.63-5.27-3.24-7.83-4.83c-48.34-30.05-79.25-54.88-80.65-68.42
	c-1.51-14.56,8.54-32.14,8.54-32.14l68.3-21.09l160.27,3.3c20.75-4.89,43.04-3,62.67,5.3c14.42,6.1,27.35,15.64,37.53,27.51
	c4.5,5.25,6.41,10.51,9.68,16.23C605.08,559.34,614.85,568.14,619.4,567.02z"/>
<path d="M409.66,651.1c-2.8-0.23-5.59-0.54-8.36-0.92c0.18-5.28-0.91-10.63-3.11-15.41c-3.37-7.29-9.71-11.75-16.92-14.86
	c-5.15-2.23-10.7-3.91-16.3-3.49c-8.48,0.62-16.05,6.17-20.45,13.49c-2.66-1.63-5.27-3.24-7.83-4.83c0.22-0.89,0.52-1.76,0.93-2.59
	c1.41-2.89,3.97-5.05,6.68-6.76c10.41-6.6,23.22-7.09,34.79-3.51C396.85,617.72,410.17,632.61,409.66,651.1z"/>
<path d="M399.19,650.78c-2.01-0.18-4-0.42-5.99-0.72c0.13-4.12-0.65-8.3-2.23-12.04c-2.41-5.7-6.95-9.18-12.12-11.61
	c-3.69-1.74-7.66-3.05-11.67-2.73c-6.07,0.48-11.49,4.82-14.64,10.54c-1.9-1.27-3.77-2.53-5.61-3.77c0.16-0.7,0.37-1.37,0.67-2.02
	c1.01-2.26,2.84-3.95,4.78-5.28c7.45-5.16,16.63-5.54,24.91-2.74C390.01,624.7,399.55,636.34,399.19,650.78z"/>
<path class="st1" d="M292.05,567.91c22.78,25.49,56.04,39.84,89.78,45.39c70.52,11.61,144.16-1.85,207.59-34.22"/>
<path d="M342.47,530.27c-3.44-1-6.7-1.95-10.24-2.38c-1.31-0.16-7.2-2.55-8.26-1.85c-0.05,0.03-16.1,10.65-16.1,10.65l0.5,16.84
	l7.18,9.91c-0.4,5.71-0.29,11.7-1.76,17.25c-1.15,4.34,0.93,8.52,4.7,10.78c3.06,1.83,6.12,3.44,9.32,4.99
	c3.22,1.55,6.09,3.27,9.74,3.82c-1.67-0.25-4.32-4.99-4.69-6.53c-0.57-2.39-0.53-4.83-1.19-7.27c-1.9-6.97-3.79-13.95-5.69-20.92
	c-0.01-0.05-0.03-0.09-0.04-0.14l1.73-19.56l14.12-10.15l4.95-0.74l-11.64,13.13l-0.74,21.05l7.92,31.95l29.72,11.14
	c0,0-23.77-36.4-22.54-37.15s10.15-6.19,10.15-6.93s-8.17-18.57-8.17-18.57l10.9-9.16l6.44,2.72l-8.17,8.42l9.91,17.09l-13.62,10.9
	l19.32,32.19l18.57,2.72l6.93-0.25c0,0-11.89-24.76-12.88-26.75c-0.99-1.98,10.15-11.64,10.15-11.64s-10.15-18.57-10.9-19.81
	c-0.74-1.24,12.88-3.47,12.88-3.47s7.68,18.33,8.92,18.82s-12.38,15.85-12.38,15.85l14.36,29.22c0,0,10.65,3.47,27.74,0.99
	c0,0-18.57-22.54-18.33-23.77s16.84-15.6,16.84-15.6L420.8,557l12.13-0.74l18.82,19.32l-16.1,20.31l15.6,22.04
	c0,0,24.27-0.5,31.2-4.21c0,0-13.13-17.09-14.36-17.58c-1.24-0.5,13.37-21.3,13.37-21.3l-22.04-27.98l8.67-6.93l21.79,29.72
	l-9.91,25.51l12.38,18.57l27.24-7.43l-16.84-17.83l17.34-27.49l-22.04-34.67c0,0,25.26-2.48,25.76,4.21
	c0.5,6.69,6.69,28.48,5.94,28.73c-0.74,0.25-11.39,30.21-12.13,30.46c-0.74,0.25,9.16,14.12,9.16,14.12l21.79-7.18l-13.62-14.36
	c0,0,17.58-36.65,18.82-40.61c1.24-3.96,1.49,14.36,0.25,14.86s-7.68,24.27-7.68,24.27l13.37,10.65c0,0,13.37-4.71,11.39-4.71
	s-11.89-7.68-11.89-7.68l8.17-28.23l9.66-10.65c0,0,3.71,14.61,1.24,18.57c-2.48,3.96-11.14,18.82-11.14,18.82s9.16,4.71,11.14,4.46
	c1.98-0.25,9.16-1.24,9.16-1.24l12.88-7.92l-13.37-3.47l-3.96-2.23l6.44-16.34c0,0,0.99-10.15-0.99-12.13
	c-1.98-1.98-10.65-6.44-14.36-9.66c-3.71-3.22-21.79-15.11-35.91-18.33c-4.53-1.03-9.28-1.16-13.91-1.2
	c-7.56-0.08-14.67-0.47-21.12,3.82c-7.22,4.8-15.68,7.9-23.66,11.23c-17.55,7.32-35.77,13.5-54.74,15.71
	c-18.17,2.11-36.56,0.5-54.44-3.04c-9.11-1.8-18.12-4.11-27.04-6.69C343,530.43,342.73,530.35,342.47,530.27z"/>
<path d="M340.85,516.58c3.55,4.49,6.21,9.68,7.78,15.18c-3.42-0.91-6.94-1.14-10.45-1.44c-2.48-0.21-6.75-1.58-9.11-0.85
	c-2.06,0.63-4,3.16-6.1,4.13c-2.49,1.16-5.25,1.72-7.83,2.62c-7.11,2.48-15.01,7.33-16.4,15.17c-1.27,7.16-2.48,14.33-9.25,18.5
	c-3.93,2.42-8.56,3.51-13.16,3.82c5.27-3.29,9.66-7.99,12.57-13.48c-1.46,2.76-8.51,5.04-11.27,6.03
	c-4.22,1.51-8.09,1.89-12.52,1.89c-10.22-0.08-20.1-4.01-28.79-9.4c-3.58-2.22-7.09-4.79-9.3-8.36c-2.22-3.58-2.89-8.37-0.71-11.97
	c-8.48,1.15-24.57,2.13-31.75-3.67c-5.89-4.77-9.58-15.97-9.09-23.23c0.65-9.69,8.91-19,18.61-18.62
	c7.89,0.31,14.25,6.31,19.64,12.09c-17.72-16.82-14.98-50.26-2.6-69.6c7.46-11.66,1.4-21.93,1.4-21.93s-15.86,22.39-17.26,52.25
	s15.4,43.39,15.4,43.39c-44.78-37.32,0.46-112.89,0.47-112.9c0.48-0.8-0.55-4.76-0.6-5.71c-0.33-6.19,0.2-12.44,1.02-18.57
	c1.62-12.1,5.93-23.43,8.66-35.22c3.01-13.03,6.33-25.99,9.96-38.86c7.34-26.03,15.49-52.6,25.63-77.78
	c10.29-25.55,24.67-50,46.57-67.28c22.57-17.8,50.43-28.62,78.8-32.53c16.03-2.21,35.12-0.99,44.76,14.08
	c1.13-2.82,3.91-4.73,6.85-5.48c2.94-0.75,6.04-0.51,9.04-0.06c29.62,4.41,54.42,22.47,73.33,44.96
	c20.59,24.49,37.07,53.7,49.06,83.29c15.19,37.48,15.7,78.9,29.54,116.79c3.37,9.21,7.96,17.88,12.52,26.54
	c3.98,7.56,6.04,15.32,9.54,23.05c8.12,17.91,12.7,37.88,10.11,57.57c-3.08,23.34-17.49,45.9-39.31,54.71
	c3.6-8.22,7.2-16.45,10.8-24.67c-6.22,14.21-19.93,27.13-32.76,35.34c-3.25,2.08-6.74,3.77-9.85,6.07c-2.16,1.6-4.04,3.26-6.62,4.18
	c-8.73,3.14-19.48,3.41-28.67,4.16c-6.24,0.51-12.51,0.81-18.77,0.88c7.11-2.96,13.64-7.32,19.11-12.74
	c-6.57,4.87-14.32,8.14-22.39,9.46c5.33-7.34,9.64-15.43,12.75-23.95c-6.44,4.63-12.89,9.27-19.33,13.9
	c6.94-10.8,14.83-20.98,23.57-30.38c-7.75,1.11-14.66,5.76-19.91,11.57c-5.26,5.81-9.08,12.75-12.78,19.65
	c0.68-1.26,0.43-4.02,0.69-5.48c0.37-2.15,0.87-4.27,1.48-6.36c1.22-4.18,2.89-8.23,4.98-12.06c2.09-3.82,4.59-7.42,7.46-10.7
	c3.19-3.64,4.11-6.18,5.38-10.94"/>
<path class="st0" d="M450.19,171.79c-9.1-0.83-18.96,1.47-27.89,2.89c-10.34,1.64-21.16,2.32-30.92,6.09
	c-22.7,8.78-39.57,27.48-54.21,46.21c-17.33,22.17-34.92,47.94-40.93,75.9c-8.65,40.24-4.79,84.55-0.65,125.11
	c2.19,21.47,2.91,49.09,15.35,67.37c9.09,13.36,21.02,24.09,33.21,34.51c17.23,14.73,37.2,30.56,60.77,31.82
	c7.73,0.41,15.46-0.12,23.18-0.47c6.92-0.32,14.37,0.19,20.91-2.48c10.94-4.47,21.63-14.27,30.73-21.66
	c10.11-8.22,19.61-17.24,27.99-27.24c15.15-18.09,20.68-41.32,23.36-64.25c2.93-25.03,4.18-50.03,8.78-74.87
	c0.36-1.94,0.71-3.9,1.3-5.79c4.2-13.53-9.8-61.58-18.19-85.37c-8.4-23.79-42.45-91.44-42.45-91.44S460.45,172.72,450.19,171.79z"/>
<path d="M432.05,312.18c-0.95,0.5-1.84,1.06-2.62,1.7c-3.17,2.6-2.91,7.52-2.78,11.22c5.31,0.2,10.44-1.73,15.44-3.53
	c11.06-3.98,22.34-7.81,33.87-10.18c10.49-2.15,21.58-2.4,31.45,2.3c2.24,1.07,4.38,2.36,6.36,3.86c3.82,2.88,8.13,6.49,10.61,10.62
	c-0.99-1.65-1.36-3.96-2.21-5.74c-0.97-2.04-2.12-3.99-3.42-5.83c-2.54-3.6-5.68-6.8-9.25-9.38c-7.85-5.69-17.4-8.06-27.02-7.7
	c-9.36,0.35-18.64,2.03-27.64,4.56c-4.59,1.29-9.11,2.8-13.56,4.5C438.43,309.65,434.94,310.65,432.05,312.18z"/>
<path d="M290.98,342.05c18.75-14.14,25.27-19.55,31.94-20.5c6.67-0.95,43.23,1.75,47.68,2.7s8.74,2.38,8.74,2.38
	s2.07-8.42-1.91-11.76c-3.97-3.34-45.93-6.83-55.94-5.09s-17.32,10.81-23.52,18.91c-6.2,8.1-6.99,14.14-6.99,14.14"/>
<path d="M485.76,337.91c3.16,1.11,6.1,2.83,9.05,4.44c4.18,2.29,8.27,4.76,12.34,7.27c0.65,0.4,1.3,0.8,1.95,1.21
	c0.48,0.3,1.28,1.05,1.83,1.14c-8.03-1.28-16.13-0.15-23.91,2.01c3.08-1.81,6.24-3.49,9.45-5.04c-4.65-3.22-9.41-6.5-14.83-7.94
	c-6.24-1.66-13.35-1.01-19.56,0.46c-3.68,0.87-6.98,2.52-10.25,4.44c-1.62,0.96-3.21,1.98-4.75,3.07c-0.77,0.55-1.53,1.11-2.28,1.69
	c-0.25,0.19-1.78,1.68-2,1.61c2.57,0.84,5.15,1.69,7.72,2.53c-3.28-0.02-6.5,0.1-9.78,0.34c-1.73,0.13-3.45,0.47-5.18,0.57
	c-0.41,0.04-0.84,0.07-1.22-0.1s-0.68-0.61-0.55-1.01c0.07-0.23,0.27-0.4,0.45-0.55c3.65-3.07,7.4-6,11.24-8.81
	c1.75-1.28,3.5-2.64,5.46-3.56c8.2-3.83,17.46-5.48,26.45-5.11c1.99,0.08,3.93,0.19,5.89,0.63
	C484.13,337.38,484.95,337.62,485.76,337.91z"/>
<g>
	<path d="M484.97,345.14c-0.05-2.06-0.59-4-1.48-5.71c-8.5-1.26-15.74-1.23-23.63,1.37c-0.02,0.01-0.05,0.02-0.07,0.03
		c-0.58,1.53-0.89,3.19-0.85,4.93c0.11,4.8,2.81,8.92,6.73,11.08c4.53,0.19,9.01,0.07,13.45-0.53
		C482.73,353.91,485.08,349.79,484.97,345.14z"/>
</g>
<g>
	<g>
		<g>
			<path d="M509.66,343.81c-2.14-4.23-4.97-7.34-7.73-9.63c-1.39-1.14-2.76-2.11-4.14-2.86c-1.34-0.8-2.63-1.47-3.87-2
				c-4.97-2.14-8.79-2.74-11.75-3.06c-2.97-0.27-5.18-0.22-7.31-0.12c-2.13,0.12-4.21,0.31-6.94,0.8
				c-4.14,0.73-8.59,2.06-12.74,3.98c-4.15,1.88-7.9,4.49-10.94,7.13c-3.05,2.63-5.46,5.23-7.14,7.09
				c-1.68,1.87-2.66,3.01-2.66,3.01s1.14-1.64,3.05-4.14c1.92-2.48,4.65-5.84,8.1-8.94c1.72-1.55,3.62-3.03,5.62-4.32
				c2-1.29,4.08-2.38,6.09-3.28c4.02-1.81,7.77-2.78,10.12-3.2c4.36-0.81,9.8-1.1,15.32-0.21c5.51,0.89,10.97,3.05,15.24,5.96
				c4.39,2.78,7.41,6.39,9.19,9.13c0.9,1.38,1.5,2.55,1.9,3.37C509.47,343.35,509.66,343.81,509.66,343.81z"/>
		</g>
	</g>
</g>
<path d="M499.46,346.07c2.67-0.67,4.85-3,5.33-5.72c-0.1,0.55-1.39,1.37-1.82,1.66c-0.71,0.49-1.47,0.81-2.27,1.12
	c-1.74,0.67-3.6,0.85-5.43,0.47c2.85-0.65,5.28-2.86,6.22-5.63c-1.16,1.12-2.61,2.24-4.15,2.78c-0.78,0.27-1.58,0.56-2.38,0.77
	c-0.45,0.12-0.92,0.22-1.38,0.28c-0.37,0.05-0.96-0.03-1.29,0.11c2.73-1.11,4.86-3.58,5.55-6.44c-2.07,2.78-5.28,4.68-8.71,5.15
	c2.92-1.11,4.34-4.33,5.46-7.24c-1.93,3.27-5.42,5.58-9.19,6.07c2.58-1.85,4.27-4.9,4.48-8.07c-1.46,3.82-4.76,6.89-8.68,8.07
	c2.12-2.16,3.44-5.09,3.66-8.11c-1.38,3.2-4.2,5.75-7.53,6.79c2.19-1.76,3.5-4.55,3.45-7.36c-1.26,3.57-4.47,6.39-8.18,7.17
	c2-1.84,3.24-4.47,3.41-7.18c-1.19,3.04-3.36,5.69-6.1,7.46c1.31-2.32,1.98-5,1.9-7.67c-1.18,3.43-3.77,6.35-7.03,7.93
	c1.92-1.82,2.78-4.69,2.18-7.27c-0.63,3.64-2.91,6.96-6.09,8.84c0.95-2.1,1.53-4.37,1.72-6.67c-1.11,3.25-3.29,6.12-6.12,8.07
	c0.84-1.91,1.33-3.98,1.44-6.06c-0.8,3.08-2.82,5.83-5.53,7.5c6.9-2.17,13.97-4.23,21.21-4.2c2.87,0.01,5.75,0.4,8.51,1.19
	c3.99,1.15,7.79,2.99,11.25,5.28c1.47,0.97,2.91,1.95,4.19,3.15c1.04,0.97,2.08,2.07,3.43,2.57c0.07,0.03,0.15,0.05,0.23,0.08
	c1.59,0.49,3.14,0.4,4.76,0.05c1.42-0.31,2.84-0.75,4.04-1.57c1.2-0.82,2.17-2.06,2.4-3.5c-1.38,1.18-3.11,1.9-4.9,2.22
	c-1.79,0.32-3.63,0.24-5.42-0.04c3-0.55,5.97-2.51,7.06-5.46C506.56,344.91,502.81,345.96,499.46,346.07z"/>
<path d="M329.61,350.92c-2.79,1.44-5.29,3.33-7.92,5.35c-4.45,3.43-8.47,7.26-13.21,10.34c4.15,0.51,8.34,0.7,12.52,0.56
	c1.57-0.05,2.86-0.4,4.36-0.7c1.6-0.31,3.38,0.15,4.96,0.4c-3.07-1.43-6.2-2.72-9.37-3.87c3.92-3.75,7.94-7.58,12.79-9.65
	c2.26-0.97,4.68-1.4,7.11-1.69c5.27-0.63,10.88-0.3,16.11,0.82c4.64,0.99,8.63,2.71,12.04,6.16c0.38,0.38,0.77,0.87,0.68,1.4
	c-0.08,0.46-0.5,0.78-0.9,1.03c-1.41,0.9-2.91,1.67-4.48,2.27c4.47-0.65,9-0.94,13.52-0.86c0.83,0.01,1.96-0.24,1.92-1.07
	c-0.02-0.48-0.46-0.81-0.87-1.07c-2.37-1.54-4.74-3.08-7.12-4.62c-6.65-4.32-14.13-7.27-22.08-7.83c-4.91-0.35-9.93-0.23-14.72,0.97
	C333.03,349.36,331.27,350.06,329.61,350.92z"/>
<g>
	<path d="M358.23,355.82c-0.03-2.33-0.68-4.5-1.78-6.38c-7.73-1.86-14.7-1.4-22.7,0.39c-1.02,1.89-1.59,4.06-1.56,6.36
		c0.06,4.4,2.31,8.25,5.68,10.56c3.44,0.25,7.27,0.16,11.79-0.38c1.39-0.17,2.75-0.34,4.06-0.51
		C356.52,363.43,358.28,359.82,358.23,355.82z"/>
</g>
<g>
	<g>
		<g>
			<path d="M308.07,357.55c1.59-4.47,4.02-7.97,6.51-10.66c1.26-1.34,2.53-2.52,3.83-3.47c1.26-1,2.49-1.87,3.69-2.59
				c4.8-2.9,8.69-4.09,11.74-4.85c3.09-0.72,5.39-0.96,7.64-1.09c2.25-0.11,4.46-0.08,7.38,0.26c4.41,0.51,9.16,1.77,13.53,3.73
				c4.41,1.93,8.3,4.68,11.38,7.42c3.09,2.73,5.44,5.4,7.08,7.31c1.63,1.92,2.56,3.1,2.56,3.1s-1.38-1.45-3.63-3.62
				c-2.27-2.16-5.44-5.04-9.19-7.55c-3.74-2.54-8.1-4.52-12.14-5.7c-4.03-1.22-7.65-1.72-9.89-1.97c-4.16-0.48-9.33-0.56-14.51,0.39
				c-5.18,0.95-10.37,3.04-14.48,5.85c-4.22,2.68-7.18,6.16-8.97,8.85c-0.9,1.35-1.51,2.51-1.92,3.32
				C308.26,357.09,308.07,357.55,308.07,357.55z"/>
		</g>
	</g>
</g>
<path d="M318.4,359.1c-2.71-0.48-5.05-2.66-5.71-5.34c0.13,0.54,1.48,1.27,1.93,1.54c0.75,0.44,1.52,0.71,2.34,0.96
	c1.78,0.55,3.65,0.6,5.45,0.09c-2.88-0.45-5.47-2.49-6.59-5.19c1.23,1.04,2.76,2.05,4.33,2.49c0.79,0.22,1.62,0.45,2.43,0.6
	c0.46,0.09,0.93,0.15,1.4,0.19c0.37,0.03,0.95-0.09,1.3,0.02c-2.8-0.92-5.09-3.24-5.98-6.05c2.25,2.63,5.59,4.3,9.05,4.53
	c-2.99-0.9-4.63-4.02-5.95-6.85c2.16,3.13,5.79,5.19,9.59,5.42c-2.7-1.67-4.6-4.59-5.02-7.74c1.72,3.71,5.22,6.55,9.21,7.45
	c-2.26-2.01-3.78-4.84-4.21-7.84c1.6,3.1,4.59,5.45,7.98,6.26c-2.3-1.6-3.81-4.3-3.95-7.1c1.5,3.48,4.9,6.06,8.65,6.59
	c-2.12-1.7-3.55-4.24-3.9-6.93c1.4,2.95,3.74,5.44,6.6,7.03c-1.47-2.22-2.32-4.85-2.43-7.52c1.41,3.34,4.2,6.08,7.56,7.43
	c-2.04-1.69-3.1-4.49-2.68-7.1c0.88,3.59,3.39,6.74,6.68,8.4c-1.09-2.03-1.83-4.26-2.18-6.54c1.34,3.16,3.71,5.88,6.66,7.62
	c-0.97-1.85-1.6-3.88-1.86-5.95c1.01,3.02,3.22,5.62,6.04,7.1c-7.04-1.69-14.23-3.26-21.45-2.73c-2.86,0.21-5.71,0.79-8.41,1.78
	c-3.91,1.43-7.57,3.52-10.86,6.05c-1.4,1.07-2.76,2.15-3.97,3.44c-0.97,1.04-1.94,2.21-3.24,2.8c-0.07,0.03-0.15,0.06-0.22,0.09
	c-1.56,0.6-3.1,0.62-4.74,0.38c-1.44-0.21-2.88-0.56-4.13-1.29c-1.25-0.74-2.3-1.91-2.63-3.32c1.46,1.08,3.24,1.68,5.04,1.88
	c1.8,0.19,3.63-0.01,5.4-0.42c-3.03-0.34-6.13-2.09-7.41-4.96C311.23,358.44,315.04,359.22,318.4,359.1z"/>
<g>
	<g>
		<g>
			<path d="M379.95,331.56c1.45,1.42,3.01,2.25,4.28,3.18c1.3,0.93,2.26,1.94,3.07,2.81c1.61,1.78,2.57,3.23,3.28,4.39
				c0.7,1.17,1.14,2.13,1.46,3.07c0.32,0.95,0.54,1.92,0.66,3.21c0.19,1.95,0.04,4.02-0.12,6c-0.16,1.95-0.21,3.9-0.24,5.64
				c-0.03,1.74-0.06,3.26-0.1,4.34c-0.05,1.06-0.09,1.72-0.09,1.72s-0.12-0.85-0.3-2.18c-0.19-1.33-0.48-3.14-0.73-5.09
				c-0.27-1.94-0.4-4.1-0.45-5.91c-0.06-1.83-0.18-3.35-0.29-4.28c-0.17-1.73-0.61-3.73-1.58-5.74c-0.93-2.03-2.16-4.03-3.48-5.69
				c-1.26-1.66-2.85-2.82-3.86-3.8C380.44,332.27,379.95,331.56,379.95,331.56z"/>
		</g>
	</g>
</g>
<g>
	<g>
		<g>
			<path d="M416.71,356.96c-0.78-7.44-0.89-7.49-0.69-9.79c0.16-1.75,0.87-3.81,1.79-5.19c0.21-0.36,0.45-0.66,0.67-0.93
				c0.2-0.28,0.41-0.5,0.59-0.68c0.34-0.35,0.56-0.57,0.56-0.57s-0.23,0.33-0.57,0.84c-0.33,0.52-0.72,1.27-1.05,2.09
				c-0.65,1.66-0.83,3.65-0.91,4.54c-0.19,1.65-0.26,4.06-0.27,6.08C416.81,355.38,416.71,356.96,416.71,356.96z"/>
		</g>
	</g>
</g>
<g>
	<g>
		<g>
			<path d="M355.79,376.33c4.51-1.75,6.69-2.8,8.12-3.45c1.42-0.66,2.08-0.96,3.44-1.5c2.05-0.81,4.52-1.7,6.48-2.42
				c1.82-0.66,3.41-1.24,3.41-1.24s-1.75,1.06-3.82,2.18c-2.06,1.13-4.43,2.32-5.54,2.77c-2.05,0.85-5.07,1.81-7.58,2.51
				C357.79,375.89,355.79,376.33,355.79,376.33z"/>
		</g>
	</g>
</g>
<g>
	<g>
		<g>
			<path d="M466.3,366.69c-2.68,0.29-4.72,0.33-6.3,0.31c-1.58-0.02-2.7-0.08-3.58-0.14c-1.76-0.13-2.58-0.23-4.19-0.55
				c-2.44-0.48-5.26-1.34-7.47-2.06c-2.21-0.73-3.83-1.3-3.83-1.3s9.55,1.51,11.59,1.84c2.4,0.47,5.79,1.18,8.65,1.51
				c1.43,0.18,2.71,0.27,3.64,0.33C465.71,366.66,466.3,366.69,466.3,366.69z"/>
		</g>
	</g>
</g>
<g>
	<g>
		<g>
			<path d="M377.65,410.4c-1.24,1.24-2.3,2.37-3.06,3.46c-0.77,1.09-1.21,2.12-1.45,3.06c-0.47,1.89-0.31,3.28-0.12,4.31
				c0.21,1.04,0.46,1.77,0.74,2.46c0.29,0.69,0.6,1.35,1.11,2.17c1.5,2.47,4.74,4.48,7.52,5.51c1.39,0.54,2.65,0.89,3.55,1.12
				c0.91,0.23,1.46,0.33,1.46,0.33s-0.74,0-1.92-0.08c-1.17-0.09-2.77-0.31-4.46-0.76c-1.68-0.44-3.44-1.17-4.86-2.11
				c-1.44-0.92-2.49-2.08-3-2.89c-0.96-1.46-1.73-3.49-1.85-5.66c-0.15-2.16,0.4-4.43,1.45-6.12c1.04-1.72,2.39-2.8,3.32-3.58
				C377.05,410.83,377.65,410.4,377.65,410.4z"/>
		</g>
	</g>
</g>
<g>
	<g>
		<g>
			<path d="M395.48,433.15c-2.9-2.06-4.39-3-5.38-3.58c-1.25-0.73-1.6-0.94-2.34-1.37c-0.68-0.4-1.44-0.82-2.21-1.13
				c-0.76-0.31-1.58-0.51-2.2-0.3c-0.31,0.11-0.54,0.34-0.71,0.58c-0.15,0.23-0.18,0.51-0.15,0.73c0.07,0.45,0.37,0.61,0.36,0.61
				c0.03,0-0.44-0.14-0.55-0.79c-0.15-0.63,0.46-1.58,1.44-1.75c0.95-0.18,1.91,0.08,2.7,0.35c0.79,0.28,1.44,0.6,1.83,0.82
				c1.45,0.81,3.28,2.26,4.7,3.54c0.72,0.63,1.34,1.22,1.78,1.64C395.19,432.89,395.48,433.15,395.48,433.15z"/>
		</g>
	</g>
</g>
<g>
	<g>
		<g>
			<path d="M433.09,426.73c-0.01-0.51-0.12-0.99-0.38-1.33c-0.26-0.34-0.63-0.51-0.99-0.57c-0.73-0.12-1.39,0.03-1.94,0.17
				c-1.11,0.31-1.85,0.68-2.43,0.96c-1.15,0.59-1.7,0.88-2.69,1.47c-1.5,0.99-3.28,2.3-4.64,3.41c-1.36,1.1-2.34,1.96-2.34,1.96
				s1.06-1.36,2.41-2.82c1.34-1.47,3.04-2.96,3.92-3.53c0.84-0.53,1.88-1.01,3.02-1.41c1.13-0.39,2.35-0.71,3.5-0.73
				c0.57,0,1.14,0.06,1.6,0.3c0.47,0.23,0.76,0.63,0.87,0.98C433.21,426.29,433.07,426.73,433.09,426.73z"/>
		</g>
	</g>
</g>
<g>
	<g>
		<g>
			<path d="M436.66,409.77c2.19,2.01,3.9,3.48,4.94,4.95c1.07,1.45,1.5,2.74,1.73,3.75c0.22,1.02,0.26,1.79,0.23,2.54
				c-0.04,0.75-0.15,1.47-0.45,2.41c-0.45,1.4-1.34,2.85-2.53,3.9c-1.2,1.08-2.7,1.7-3.99,1.95c-1.3,0.26-2.42,0.31-3.22,0.34
				c-0.78,0.03-1.27,0.04-1.27,0.04s0.62-0.14,1.58-0.35c0.96-0.23,2.28-0.53,3.52-1.13c1.25-0.59,2.32-1.55,3.01-2.59
				c0.71-1.02,1.06-2.05,1.26-2.68c0.38-1.17,0.63-2.7,0.44-4.27c-0.16-1.57-0.85-3.12-1.72-4.41c-0.87-1.29-1.82-2.37-2.48-3.16
				C437.07,410.26,436.66,409.77,436.66,409.77z"/>
		</g>
	</g>
</g>
<g>
	<g>
		<g>
			<path d="M417.26,433.77c-3.63,2.92-5.98,3.77-7.48,4.17c-1.53,0.38-2.28,0.44-3.73,0.38c-2.21-0.08-4.75-0.86-6.58-1.73
				c-0.92-0.43-1.68-0.87-2.21-1.2c-0.53-0.33-0.83-0.54-0.83-0.54s1.8,0.82,3.96,1.37c2.15,0.58,4.62,0.76,5.72,0.76
				c1.03,0.05,2.26,0.05,3.52-0.15c1.27-0.18,2.56-0.57,3.69-1.04c1.14-0.46,2.12-1,2.82-1.38
				C416.82,434.02,417.26,433.77,417.26,433.77z"/>
		</g>
	</g>
</g>
<g>
	<path d="M484.46,454.2c-3.81,0.87-6.71,2.74-9.96,4.72c-3.43,2.08-7.37,3.65-11.13,5.05c-5.64,2.1-11.62,2.74-17.4,3.37
		c-1.09,0.12-2.18,0.24-3.27,0.36c-5.35,0.63-8.02,0.84-13.86,2.23c-1.65,0.39-3.33,0.89-4.95,1.38c-3.49,1.05-7.11,2.13-10.88,2.28
		c-2.91,0.11-5.82-0.13-8.64-0.38c-2.16-0.18-4.39-0.37-6.57-0.39c-3-0.04-6.04,0.18-8.99,0.37c-1.94,0.13-7.33,0.76-9.31,0.83
		l-0.94,0.03c-3.65,0.13-7.38,0.26-11.12,0.26c-2.55,0-5.11-0.06-7.65-0.23c-3.23-0.21-6.51-0.55-9.72-0.88
		c0.17-1.65,2.85-4.35,4.59-3.39c0.96,0.53,1.1,1.64,2.19,2c0.96,0.31,2.08,0.11,3.08,0.17c6.16,0.4,12.47,0.18,18.56-0.04
		l0.94-0.03c1.95-0.07,3.93-0.2,5.85-0.33c2.99-0.2,9.48-0.91,12.55-0.88c2.26,0.02,4.53,0.21,6.73,0.4
		c2.75,0.24,5.6,0.48,8.38,0.37c3.51-0.14,6.99-1.18,10.36-2.19c1.65-0.5,3.36-1.01,5.06-1.41c5.96-1.42,8.69-1.64,14.1-2.27
		c1.09-0.13,2.19-0.25,3.29-0.37c5.66-0.61,11.5-1.24,16.9-3.25c3.52-1.31,7.18-2.43,10.41-4.39c1.9-1.16,3.4-2.91,5.4-3.91
		C480.6,452.62,482.2,454.23,484.46,454.2z"/>
</g>
<path class="st2" d="M355.44,472.81c6.41-0.11,26.62-9.94,32.03-12.37c5.41-2.43,24.52,0.44,24.52,0.44s8.95-3.53,18-4.86
	c9.06-1.33,20.87,2.1,31.03,2.87c10.16,0.77,15.49-2.55,15.49-2.55"/>
<g>
	<g>
		<g>
			<path d="M447.22,485.85c-4.84,4.44-9.26,6.95-12.76,8.58c-0.44,0.21-0.85,0.43-1.26,0.62c-0.42,0.17-0.82,0.33-1.21,0.49
				c-0.78,0.32-1.5,0.61-2.17,0.88c-1.36,0.51-2.55,0.85-3.59,1.2c-1.04,0.37-1.97,0.53-2.81,0.76c-0.85,0.2-1.62,0.4-2.39,0.53
				c-0.77,0.12-1.54,0.23-2.36,0.33c-0.82,0.11-1.71,0.21-2.73,0.25c-6.15,0.39-13.5-0.55-18.98-2.28c-2.75-0.83-5.05-1.77-6.65-2.5
				c-1.56-0.77-2.51-1.24-2.51-1.24s1.34,0.37,3.43,0.95c1.07,0.21,2.3,0.53,3.68,0.76c1.39,0.2,2.87,0.49,4.44,0.6
				c0.78,0.07,1.57,0.15,2.36,0.22c0.8,0.03,1.6,0.07,2.39,0.1c0.4,0.02,0.79,0.04,1.18,0.05c0.39,0,0.78-0.01,1.17-0.01
				c0.77,0,1.52-0.01,2.25-0.01c1.46-0.04,2.82-0.15,4-0.19c1.19-0.09,2.2-0.2,2.99-0.24c1.46-0.04,3.05-0.29,4.75-0.41
				c0.85-0.08,1.71-0.24,2.59-0.36c0.88-0.13,1.79-0.23,2.68-0.43c0.9-0.18,1.8-0.36,2.71-0.54c0.9-0.21,1.79-0.47,2.68-0.7
				c0.45-0.12,0.89-0.23,1.33-0.35c0.44-0.13,0.86-0.29,1.29-0.43c0.85-0.29,1.69-0.57,2.51-0.85c0.8-0.32,1.57-0.67,2.32-0.98
				c0.74-0.33,1.49-0.59,2.13-0.97c1.3-0.71,2.53-1.28,3.48-1.88C446.05,486.6,447.22,485.85,447.22,485.85z"/>
		</g>
	</g>
</g>
<g>
	<g>
		<g>
			<path d="M465.79,428.6c7.29,4.49,10.92,6.74,13.36,8.05c2.43,1.37,3.59,2.03,5.65,3.78c0.39,0.34,0.77,0.7,1.15,1.08
				c0.37,0.4,0.77,0.85,1.11,1.33c0.69,0.96,1.15,2.1,1.43,3.24c0.53,2.31,0.18,4.54-0.26,6.36c-0.47,1.83-1.06,3.33-1.47,4.4
				c-0.42,1.05-0.68,1.69-0.68,1.69s0.18-0.89,0.45-2.28c0.26-1.39,0.62-3.3,0.67-5.31c0.07-2-0.3-4.08-1.17-5.55
				c-0.11-0.18-0.22-0.36-0.32-0.54c-0.12-0.17-0.25-0.32-0.37-0.48c-0.22-0.32-0.51-0.57-0.75-0.82c-0.5-0.5-1.03-0.93-1.4-1.25
				c-1.4-1.22-3.27-2.58-5.27-4c-2.02-1.42-4.01-3.06-5.79-4.49C468.57,430.93,465.79,428.6,465.79,428.6z"/>
		</g>
	</g>
</g>
<g>
	<g>
		<g>
			<path d="M436.52,513.79c-8.83,0-13.22,0.36-16.05,0.61c-2.83,0.28-4.14,0.4-6.75,0.61c-3.96,0.28-8.67,0.78-12.39,1.47
				c-0.93,0.15-1.8,0.34-2.57,0.51c-0.78,0.16-1.47,0.31-2.03,0.47c-1.13,0.28-1.82,0.46-1.82,0.46s0.86-0.39,2.19-1
				c1.35-0.59,3.23-1.32,5.28-2c4.1-1.35,8.93-2.26,11.12-2.44c2.04-0.19,4.51-0.24,7.07-0.18c2.55,0.08,5.18,0.25,7.55,0.49
				c2.37,0.23,4.47,0.49,5.98,0.69C435.58,513.66,436.52,513.79,436.52,513.79z"/>
		</g>
	</g>
</g>
<path d="M345.41,179.43l-70.44,76.84c0,0-16.2,80.61-14.31,93.41c1.88,12.81,20.34,72.32,20.72,82.49
	c0.38,10.17,8.66-3.01,24.48-48.21s15.07-64.41,32.39-96.8s33.15-47.08,33.15-47.08s-23.35,27.12-32.77,64.41
	c-9.42,37.29-10.17,34.28-10.17,34.28s10.55-42.94,37.67-82.49s70.06-56.5,74.58-58.76c4.52-2.26,6.78-11.3,6.03-10.17
	c-0.75,1.13,15.44,22.6,32.02,37.67c16.57,15.07,50.85,84.75,57.63,115.64s7.53,62.15,6.03,65.92c-1.51,3.77,22.6-24.86,22.6-53.11
	s-29.38-108.48-37.67-123.92c-7.49-13.96-16.83-32.04-29.85-41.55c-5.47-4-11.29-7.3-16.58-11.6c-8.52-6.92-19.71-12.81-30.74-14.33
	c-11.63-1.6-25.22,1.38-36.74,3.06c-20.26,2.95-40.36,7.18-60.19,12.25C350.62,178.02,348.01,178.7,345.41,179.43z"/>
<path d="M354.99,635.63c2.36-5.08,9.34-13.05,23.02-6.98s11.69,18.85,11.69,18.85l-8.16-1.9c0,0,2.81-9.43-7.89-13.32
	c-10.7-3.9-14.41,6.25-14.41,6.25L354.99,635.63z"/>
<path d="M479.13,643.72c1.89-1.38,6.18-1.68,8.47-2.37c3.13-0.94,6.24-1.96,9.32-3.04c2.55-0.9,5.59-1.6,7.88-3.07
	c1.45-0.93,2.21-2.46,3.34-3.71c4.12-4.59,8.85-8.74,13.24-13.06c-2.73-0.16-5.42-1.04-7.72-2.52c-0.03-0.26-0.07-0.53-0.1-0.79
	c-0.44-0.33-0.89-0.65-1.33-0.98c1.19,0.88,5.93-2.11,7.29-2.44c4.21-1.03,7.42,2.25,11.03,3.99c-3.49,1.76-6.33,4.69-8.87,7.61
	c-1.74,2-3.63,6.52-6.23,7.49c3.36-1.25,6.1-3.79,9.29-5.36c3.61-1.78,7.12-3.22,10.33-5.75c3.02-2.39,4.99-7.04,7.06-10.3
	c-4.55-0.92-9.09-1.85-13.64-2.77c3.48-1.22,7.15-3.21,10.84-2.78c1.97,0.23,3.96,0.4,5.93,0.61c0.82,0.08,5.04,1.05,5.56,0.57
	c-3.19,2.93-5.91,6.38-8.02,10.17c0.63-1.14,4.05-2.5,5.2-3.3c1.87-1.3,3.69-2.66,5.55-3.97c1.5-1.06,2.82-1.59,4.45-2.29
	c2.06-0.89,3.95-2.46,5.83-3.68c-0.61-0.87-0.08-2.28,0.95-2.53c-1.39,0.34-4.27-0.83-5.73-1.07c-2.04-0.33-4.08-0.61-6.13-0.83
	c-1.57-0.17-3.41-0.66-4.97-0.6c-1.78,0.07-3.78,1.1-5.48,1.65c-7.99,2.58-16.01,5.11-24.13,7.27c-3.95,1.05-7.93,2.02-11.93,2.87
	c-2.53,0.53-5,0.45-6.19,2.99c-1.37,2.94-1.84,6.43-3.16,9.45c-1.35,3.1-2.98,6.07-4.86,8.87
	C488.68,635.3,484.25,639.97,479.13,643.72z"/>
<g>
	<g>
		<g>
			<path d="M342.62,468.46c-1.01-1.9-1.65-3.42-1.94-4.68c-0.3-1.26-0.31-2.22-0.25-2.96c0.16-1.49,0.43-2.14,0.92-3.36
				c0.78-1.86,2.08-3.9,3.29-5.34c1.19-1.46,2.22-2.37,2.22-2.37s-1.1,1.47-2.1,3.28c-1.03,1.8-1.88,3.95-2.26,4.91
				c-0.37,0.91-0.84,1.95-1.06,3.09c-0.22,1.14-0.18,2.38,0.03,3.49c0.2,1.11,0.52,2.1,0.75,2.8
				C342.47,468.02,342.62,468.46,342.62,468.46z"/>
		</g>
	</g>
</g>
</svg>
