<?xml version="1.0" encoding="UTF-8"?>
<svg viewBox="0 0 353 230" version="1.1" xmlns="http://www.w3.org/2000/svg" xmlns:xlink="http://www.w3.org/1999/xlink">
    <g id="Page-1" stroke="none" stroke-width="1"  fill-rule="evenodd">
        <g id="thelogo" transform="translate(-8.000000, -42.000000)">
            <path d="M104.998151,271.311333 C113.935823,271.311333 121.756799,268.442624 127.981406,263.502099 C128.779414,262.864608 129.417845,263.342727 129.417845,264.298933 L129.417845,267.805133 C129.417845,268.76137 130.056275,269.398861 131.01392,269.398861 L153.677784,269.398861 C154.635429,269.398861 155.27386,268.76137 155.27386,267.805133 L155.27386,159.593727 C155.27386,158.637491 154.635429,158 153.677784,158 L131.01392,158 C130.056275,158 129.417845,158.637491 129.417845,159.593727 L129.417845,195.930355 C129.417845,197.045935 128.779414,197.36468 127.821769,196.72719 C121.756858,191.627262 113.935881,188.599151 104.99821,188.599151 C83.9301283,188.599151 66.8526764,208.042682 66.8526764,230.513972 C66.8526764,252.985261 83.9301283,271.313271 104.99821,271.313271 L104.998151,271.311333 Z M110.024219,250.064768 C99.8113308,250.064768 91.6104903,240.918083 91.6104903,230.510273 C91.6104903,220.102462 99.6569192,211.113124 110.024219,211.113124 C120.546517,211.113124 128.747358,220.101875 128.747358,230.510273 C128.747358,240.918671 120.546517,250.064768 110.024219,250.064768 Z M199.624038,271.311333 C220.14434,271.311333 232.551869,257.757166 235.415235,246.252622 C235.574309,245.622235 234.938021,245.307013 233.983611,244.99179 L216.326675,240.421266 C215.372259,240.106061 214.895051,240.421266 214.417784,241.366875 C211.077268,246.567786 206.941445,250.192407 199.146889,250.192407 C196.124531,250.192407 193.261048,249.562021 190.715899,248.301188 C189.761482,247.985983 189.761482,247.197938 190.715899,246.567551 L233.983435,221.193559 C234.619751,220.720748 235.09696,220.247949 234.937851,219.30234 C233.506227,202.281251 217.280915,188.097108 197.873786,188.097108 C174.967443,188.097108 157.628724,206.064041 157.628724,229.231651 C157.628724,252.557195 176.558528,271.311451 199.62398,271.311451 L199.624038,271.311333 Z M180.618496,231.328713 L180.618496,230.843737 C180.618496,219.042699 188.94498,209.342951 199.833639,209.342951 C204.477376,209.342951 208.000427,211.444534 210.402319,214.031075 C210.882704,214.677725 210.722574,215.324374 210.082065,215.809333 L182.219874,232.137037 C181.419223,232.622013 180.618573,232.298694 180.618573,231.328754 L180.618496,231.328713 Z M281.843218,269.54059 C282.636941,269.54059 283.271907,269.221898 283.589361,268.265844 L314.861524,191.776331 C315.337746,190.660928 314.702785,189.864152 313.591591,189.864152 L289.145243,189.864152 C288.35152,189.864152 287.557856,190.182845 287.240344,191.138899 L271.525002,234.480999 C271.207519,235.596403 270.255069,235.596403 269.937615,234.480999 L254.380795,191.138899 C254.063311,190.182839 253.269618,189.864152 252.475896,189.864152 L228.029547,189.864152 C226.918371,189.864152 226.283404,190.660869 226.759614,191.776331 L257.872669,268.265844 C258.190152,269.221904 258.825089,269.54059 259.618811,269.54059 L281.842338,269.54059 L281.843218,269.54059 Z M314.509195,267.258763 C344.712219,278.271303 361,264.741678 361,251.684329 C361,246.020829 360.367441,242.087913 356.414152,235.952547 C350.563244,227.300214 338.703202,219.276683 338.703202,213.770706 C338.703202,205.118373 350.247082,208.264553 356.097696,210.309714 C357.046476,210.62435 357.520866,210.152396 357.520866,209.20846 L356.255807,192.217901 C356.255807,191.58863 355.781411,190.959359 355.148858,190.802012 C334.433633,183.722563 311.978783,190.644694 311.978783,210.309538 C311.978783,223.839046 321.308648,232.176685 328.740953,239.256133 C330.954793,241.301294 334.117471,244.447651 334.117471,247.593772 C334.117471,256.246105 320.67603,251.212111 312.927856,246.807154 C312.137187,246.177882 311.346517,246.649836 311.504686,247.593772 L313.402305,265.999868 C313.402305,266.629139 313.876701,267.101122 314.509254,267.258411 L314.509195,267.258763 Z" id="Shape" fill-rule="nonzero"></path>
            <text id="lovin" font-family="LeagueSpartan-Bold, League Spartan" font-size="144" font-weight="bold">
                <tspan x="0.828" y="166">lovin</tspan>
            </text>
        </g>
    </g>
</svg>
