<?xml version="1.0" standalone="no"?>
<!DOCTYPE svg PUBLIC "-//W3C//DTD SVG 20010904//EN"
 "http://www.w3.org/TR/2001/REC-SVG-20010904/DTD/svg10.dtd">
<svg version="1.0" xmlns="http://www.w3.org/2000/svg"
 width="428" height="164" viewBox="0 0 428 164"
 preserveAspectRatio="xMidYMid meet" class="logo">

<g transform="translate(0.000000,164.000000) scale(0.100000,-0.100000)" stroke="none">
<path d="M1740 1353 l0 -286 -22 20 c-31 28 -63 43 -123 59 -216 58 -423 -87
-455 -318 -5 -33 -6 -75 -3 -92 l5 -31 -20 31 c-34 53 -91 91 -186 125 -99 35
-126 52 -126 80 0 43 84 51 181 19 34 -12 63 -20 64 -18 8 9 75 149 75 157 0
18 -125 52 -210 58 -143 9 -253 -30 -316 -113 -23 -30 -29 -49 -32 -104 -7
-111 34 -166 170 -230 35 -17 68 -30 74 -30 20 0 64 -41 64 -59 0 -30 -33 -51
-79 -51 -41 0 -127 35 -164 68 -9 8 -19 13 -21 11 -21 -22 -96 -165 -92 -175
7 -18 99 -64 161 -80 61 -17 175 -18 247 -3 119 25 188 88 210 191 l12 56 23
-50 c30 -65 54 -95 114 -139 118 -90 289 -91 404 -4 25 19 47 35 50 35 3 0 5
-18 5 -40 l0 -40 125 0 125 0 0 620 0 620 -130 0 -130 0 0 -287z m-78 -435
c105 -60 114 -218 15 -292 -42 -31 -159 -30 -205 2 -44 32 -64 74 -64 136 -1
56 16 98 54 133 51 48 136 57 200 21z"/>
<path d="M248 1552 c-35 -33 -41 -46 -45 -89 -10 -98 52 -167 149 -167 76 0
137 56 145 135 9 89 -59 159 -154 159 -49 0 -58 -4 -95 -38z"/>
<path d="M2340 1144 c-193 -52 -328 -255 -291 -436 25 -116 106 -229 199 -277
196 -100 447 -50 563 111 l20 27 -91 46 -91 45 -37 -30 c-112 -89 -274 -52
-298 69 l-6 31 266 0 c205 0 266 3 267 13 7 66 -13 174 -44 234 -73 140 -278
215 -457 167z m190 -169 c28 -14 60 -60 60 -85 0 -6 -47 -10 -135 -10 -116 0
-135 2 -135 16 0 73 128 121 210 79z"/>
<path d="M3890 1145 c-68 -19 -120 -53 -156 -101 -23 -30 -29 -49 -32 -104 -7
-111 34 -166 170 -230 35 -17 68 -30 74 -30 20 0 64 -41 64 -59 0 -30 -33 -51
-79 -51 -41 0 -127 35 -164 68 -9 8 -19 13 -21 11 -21 -22 -96 -165 -92 -175
7 -18 99 -64 161 -80 105 -28 260 -13 347 33 92 50 135 159 104 265 -23 79
-77 125 -199 168 -100 36 -127 53 -127 81 0 43 84 51 181 19 34 -12 63 -20 64
-18 8 9 75 149 75 157 0 5 -28 19 -62 31 -84 29 -233 36 -308 15z"/>
<path d="M219 733 c0 -289 -4 -418 -12 -443 -15 -43 -48 -61 -90 -49 -17 5
-34 5 -38 1 -3 -4 -22 -49 -42 -100 l-36 -93 37 -16 c86 -36 229 -36 299 1 48
24 101 91 117 147 14 44 16 125 16 506 l0 453 -125 0 -125 0 -1 -407z"/>
<path d="M2810 1048 c27 -51 116 -218 197 -371 l148 -277 89 2 88 3 194 360
c106 198 194 363 194 368 0 4 -67 7 -148 7 l-148 0 -89 -200 c-49 -110 -90
-198 -92 -196 -1 1 -42 90 -91 197 l-88 194 -152 3 -152 3 50 -93z"/>
</g>
</svg>
